<svg width="53" height="53" viewBox="0 0 53 53" fill="none" xmlns="http://www.w3.org/2000/svg">
<path d="M45.0578 7.8572C34.9027 -2.29488 18.4403 -2.29244 8.28823 7.86279C-1.86385 18.018 -1.86141 34.4803 8.29382 44.6324C18.4491 54.7845 34.9113 54.782 45.0634 44.6268C49.939 39.7497 52.6773 33.1354 52.6758 26.2392C52.6744 19.3441 49.9341 12.732 45.0578 7.8572ZM40.0519 36.4625C40.0508 36.4636 40.0497 36.4648 40.0485 36.4659V36.4573L38.7311 37.7659C37.0274 39.4912 34.5461 40.201 32.1877 39.6379C29.8117 39.002 27.5529 37.9896 25.4971 36.6393C23.5871 35.4186 21.8171 33.9917 20.2191 32.3839C18.7488 30.9244 17.4278 29.3217 16.2757 27.5999C15.0155 25.7472 14.0181 23.729 13.3117 21.6026C12.502 19.1045 13.173 16.3635 15.0451 14.5219L16.5877 12.9793C17.0166 12.5485 17.7135 12.547 18.1443 12.9759C18.1454 12.977 18.1466 12.9781 18.1477 12.9793L23.0184 17.8499C23.4492 18.2788 23.4507 18.9758 23.0218 19.4065C23.0207 19.4076 23.0196 19.4087 23.0184 19.4099L20.1584 22.2699C19.3377 23.0816 19.2345 24.3715 19.9157 25.3033C20.9501 26.7229 22.0948 28.0588 23.3391 29.2987C24.7263 30.6919 26.2344 31.9593 27.8457 33.086C28.7767 33.7354 30.039 33.6259 30.8444 32.826L33.609 30.018C34.0379 29.5872 34.7348 29.5857 35.1655 30.0146C35.1666 30.0157 35.1678 30.0168 35.169 30.018L40.0484 34.906C40.4793 35.3348 40.4808 36.0317 40.0519 36.4625Z" fill="#296CF0"/>
</svg>
