<svg width="19" height="32" viewBox="0 0 19 32" fill="none" xmlns="http://www.w3.org/2000/svg">
<path d="M4.67883 2.93447C4.67883 2.59457 4.67883 2.25466 4.67883 1.91476C4.67659 1.76114 4.70546 1.60866 4.76371 1.46649C4.82196 1.32433 4.90838 1.19542 5.01777 1.08755C5.12716 0.97967 5.25725 0.895057 5.40021 0.838792C5.54317 0.782528 5.69604 0.755786 5.84961 0.760171C6.3244 0.760171 6.79919 0.760171 7.27397 0.760171H17.3578C17.5336 0.73677 17.7124 0.754368 17.8803 0.811608C18.0482 0.868848 18.2005 0.964167 18.3254 1.0901C18.4503 1.21603 18.5443 1.36917 18.6002 1.53751C18.656 1.70585 18.6721 1.88483 18.6473 2.06044C18.6473 2.35179 18.6473 2.63773 18.6473 2.92907C18.5267 3.00958 18.3805 3.04229 18.2372 3.0208H5.09427C4.9499 3.04369 4.80214 3.01299 4.67883 2.93447Z" fill="#FEC843"/>
<path d="M4.67871 2.93457H18.6309V4.83911C18.5754 4.88549 18.5105 4.91918 18.4406 4.93782C18.3707 4.95646 18.2975 4.95961 18.2263 4.94702H5.08336C4.93769 4.94702 4.78662 4.94701 4.67871 4.83371V2.93457Z" fill="#43567B"/>
<path d="M4.67876 4.82825H8.15333H18.631C18.631 5.36778 18.631 5.86954 18.631 6.39288H18.4152H4.88378H4.66797C4.67336 5.87493 4.67336 5.35159 4.67876 4.82825Z" fill="#FEC843"/>
<path d="M18.6314 6.15002C18.6314 6.48993 18.6314 6.82984 18.6314 7.16974C18.6337 7.32336 18.6048 7.47584 18.5466 7.61801C18.4883 7.76017 18.4019 7.88907 18.2925 7.99695C18.1831 8.10483 18.053 8.18944 17.9101 8.24571C17.7671 8.30197 17.6142 8.32871 17.4607 8.32433C16.9859 8.32433 16.5111 8.32433 16.0363 8.32433H5.95789C5.78179 8.34679 5.60288 8.32833 5.43507 8.2704C5.26726 8.21248 5.11507 8.11664 4.99032 7.99033C4.86558 7.86402 4.77164 7.71064 4.71581 7.54212C4.65998 7.3736 4.64376 7.19448 4.66841 7.01868C4.66841 6.72733 4.66841 6.44137 4.66841 6.15002C4.79133 6.07055 4.93945 6.03977 5.08385 6.0637C9.45404 6.0637 13.8278 6.0637 18.2052 6.0637C18.353 6.0406 18.5042 6.07123 18.6314 6.15002Z" fill="#FEC843"/>
<path d="M16.9201 12.6406C16.9201 17.0215 16.9201 21.4043 16.9201 25.7889C16.9398 25.9346 16.9053 26.0825 16.823 26.2043C16.823 27.2133 16.823 28.2222 16.823 29.2311C16.823 30.7903 16.5101 31.2651 15.0965 31.8532H1.85106C1.73776 31.7561 1.5813 31.7615 1.45181 31.7075C1.05031 31.5454 0.708254 31.2639 0.47186 30.9011C0.235467 30.5383 0.116126 30.1117 0.129962 29.6789C0.129962 27.6719 0.129962 25.6648 0.129962 23.6578C0.129962 18.5538 0.129962 13.4517 0.129962 8.35131C0.0901439 7.82363 0.251648 7.30044 0.581979 6.88703C0.91231 6.47362 1.38695 6.20065 1.91041 6.12305C2.07766 6.12305 2.23952 6.12305 2.40138 6.12305H14.1415C14.4113 6.12305 14.6811 6.12305 14.9454 6.12305H15.021C15.5389 6.20027 16.0093 6.46835 16.3398 6.87465C16.6702 7.28094 16.8368 7.7961 16.8068 8.31894V12.2305C16.8525 12.2876 16.8861 12.3534 16.9056 12.4239C16.9251 12.4944 16.93 12.5681 16.9201 12.6406Z" fill="#43567C"/>
<path d="M8.46126 16.6439H3.06597C2.52644 16.6439 2.40774 16.5306 2.40234 16.0019V11.0922C2.40234 10.6228 2.52644 10.4879 2.99583 10.4393C3.09827 10.434 3.20092 10.434 3.30336 10.4393H13.6407C13.745 10.434 13.8494 10.434 13.9537 10.4393C14.4177 10.4933 14.5364 10.6228 14.5364 11.0976V16.0343C14.5364 16.5144 14.4069 16.6439 13.9321 16.6439H8.46126Z" fill="#6BB2D8"/>
<path d="M4.13926 7.81191C4.13926 8.31907 4.13926 8.31907 4.67879 8.31907H12.2754C12.7825 8.31907 12.7825 8.31907 12.8149 7.81191C12.9821 7.81191 13.1656 7.75795 13.3274 7.87125C13.4107 7.97401 13.4675 8.0956 13.4929 8.2254C13.5183 8.3552 13.5115 8.48925 13.4731 8.61581C13.3976 8.81543 13.2249 8.80465 13.0577 8.80465H3.92344C3.49721 8.80465 3.46484 8.76687 3.46484 8.34064C3.46484 7.91441 3.55117 7.80111 3.95042 7.80111L4.13926 7.81191Z" fill="#303B5A"/>
<path d="M7.95817 22.8809C7.95817 23.0913 7.95817 23.2963 7.95817 23.5013C7.95817 23.825 7.8125 23.9923 7.49417 24.0031C7.05176 24.0031 6.60934 24.0031 6.16154 24.0031C6.09918 24.0058 6.03698 23.995 5.9792 23.9714C5.92143 23.9478 5.86947 23.9119 5.82691 23.8663C5.78434 23.8206 5.75217 23.7663 5.73263 23.707C5.7131 23.6477 5.70664 23.5849 5.71372 23.5229C5.71372 23.0913 5.71372 22.6597 5.71372 22.2226C5.70721 22.1582 5.71492 22.0931 5.73632 22.032C5.75772 21.9708 5.79228 21.9151 5.83757 21.8688C5.88285 21.8225 5.93775 21.7867 5.99839 21.7639C6.05904 21.7412 6.12394 21.732 6.18851 21.7371C6.62553 21.7371 7.05715 21.7371 7.48878 21.7371C7.55393 21.7326 7.61927 21.7426 7.68011 21.7663C7.74094 21.7901 7.79576 21.827 7.84063 21.8745C7.88551 21.9219 7.91932 21.9787 7.93964 22.0408C7.95996 22.1028 7.96629 22.1686 7.95817 22.2334C7.95817 22.4492 7.95817 22.6651 7.95817 22.8809Z" fill="#B9C1D2"/>
<path d="M14.5354 22.8919C14.5354 23.0969 14.5354 23.3019 14.5354 23.5069C14.5354 23.8253 14.3789 23.9979 14.0714 24.0087C13.6398 24.0087 13.2027 24.0087 12.7711 24.0087C12.442 24.0087 12.2909 23.8253 12.2855 23.4692C12.2801 23.1131 12.2855 22.6437 12.2855 22.2336C12.2769 22.1619 12.2852 22.0891 12.3097 22.0211C12.3342 21.9531 12.3742 21.8917 12.4266 21.8419C12.479 21.7922 12.5424 21.7553 12.6115 21.7343C12.6807 21.7133 12.7538 21.7088 12.8251 21.7211C13.2243 21.7211 13.629 21.7211 14.0282 21.7211C14.4275 21.7211 14.5677 21.8776 14.5677 22.2606C14.5408 22.4764 14.5354 22.6815 14.5354 22.8919Z" fill="#B9C1D2"/>
<path d="M4.63974 22.8755C4.63974 23.0913 4.63974 23.3071 4.63974 23.5229C4.64668 23.5833 4.64062 23.6444 4.62199 23.7023C4.60335 23.7601 4.57256 23.8133 4.53168 23.8583C4.49081 23.9032 4.44079 23.9389 4.38498 23.963C4.32918 23.987 4.26888 23.9989 4.20812 23.9977C3.74413 23.9977 3.28013 23.9977 2.81074 23.9977C2.75311 23.9987 2.69592 23.9875 2.64289 23.9649C2.58986 23.9424 2.54219 23.9088 2.50299 23.8666C2.46379 23.8243 2.43394 23.7743 2.41538 23.7197C2.39683 23.6651 2.38999 23.6073 2.3953 23.5499C2.3953 23.0913 2.3953 22.6381 2.3953 22.1795C2.39124 22.1191 2.40022 22.0587 2.42163 22.0021C2.44305 21.9456 2.47639 21.8943 2.5194 21.8518C2.5624 21.8093 2.61406 21.7766 2.67085 21.7559C2.72764 21.7351 2.78824 21.7269 2.84851 21.7317C3.29092 21.7317 3.73873 21.7317 4.18114 21.7317C4.24417 21.7299 4.30685 21.7415 4.36509 21.7657C4.42333 21.7898 4.47582 21.826 4.51911 21.8718C4.5624 21.9177 4.59553 21.9721 4.61631 22.0316C4.6371 22.0912 4.64509 22.1544 4.63974 22.2172V22.8755Z" fill="#B9C1D2"/>
<path d="M11.2342 22.8971C11.2342 23.113 11.2342 23.3288 11.2342 23.5446C11.2405 23.6045 11.2338 23.6651 11.2144 23.7222C11.195 23.7792 11.1634 23.8314 11.1218 23.875C11.0802 23.9187 11.0296 23.9527 10.9736 23.9749C10.9175 23.997 10.8573 24.0066 10.7971 24.0032C10.3547 24.0032 9.91232 24.0032 9.46991 24.0032C9.1354 24.0032 8.99512 23.8251 8.99512 23.4636C8.99512 23.1022 8.99512 22.6544 8.99512 22.2551C8.99512 21.8559 9.15158 21.7156 9.53465 21.7156C9.91771 21.7156 10.3385 21.7156 10.7432 21.7156C11.1478 21.7156 11.2557 21.8828 11.2557 22.2551C11.2396 22.4817 11.2396 22.6867 11.2342 22.8971Z" fill="#B9C1D2"/>
<path d="M10.0847 20.6526C9.87426 20.6526 9.66923 20.6526 9.45882 20.6526C9.39686 20.6566 9.33477 20.6473 9.27668 20.6253C9.21859 20.6034 9.16584 20.5694 9.12193 20.5255C9.07803 20.4816 9.04399 20.4288 9.02207 20.3707C9.00015 20.3127 8.99086 20.2506 8.99482 20.1886C8.99482 19.7408 8.99482 19.2984 8.99482 18.8506C8.98792 18.7908 8.99462 18.7302 9.01441 18.6734C9.03421 18.6166 9.06658 18.565 9.10913 18.5225C9.15167 18.4799 9.20328 18.4475 9.2601 18.4277C9.31691 18.408 9.37747 18.4013 9.43724 18.4082C9.89044 18.4082 10.349 18.4082 10.8022 18.4082C10.8596 18.4015 10.9177 18.4077 10.9724 18.4264C11.027 18.445 11.0768 18.4756 11.1182 18.5159C11.1595 18.5562 11.1913 18.6052 11.2114 18.6594C11.2314 18.7135 11.2391 18.7715 11.2339 18.829C11.2339 19.2822 11.2339 19.7408 11.2339 20.194C11.24 20.2567 11.2319 20.3199 11.2104 20.3791C11.1888 20.4383 11.1542 20.4918 11.1091 20.5358C11.0641 20.5798 11.0097 20.6132 10.9501 20.6334C10.8904 20.6536 10.827 20.6602 10.7645 20.6526C10.5379 20.6526 10.3113 20.6526 10.0847 20.6526Z" fill="#B9C1D2"/>
<path d="M7.95887 19.5736V20.1941C7.96505 20.2538 7.9584 20.3141 7.93934 20.371C7.92029 20.428 7.88928 20.4801 7.8484 20.5241C7.80752 20.568 7.75772 20.6027 7.70232 20.6258C7.64693 20.6489 7.58723 20.66 7.52724 20.6581C7.05785 20.6581 6.59386 20.6581 6.12986 20.6581C6.07471 20.6613 6.01951 20.6527 5.96794 20.6329C5.91638 20.6131 5.86963 20.5825 5.83082 20.5432C5.79202 20.5038 5.76204 20.4567 5.7429 20.4049C5.72376 20.3531 5.71589 20.2977 5.71982 20.2426C5.71982 19.7733 5.71982 19.3093 5.71982 18.8453C5.7139 18.7878 5.72086 18.7298 5.74019 18.6754C5.75952 18.621 5.79073 18.5716 5.83155 18.5308C5.87238 18.4899 5.92179 18.4587 5.97619 18.4394C6.03059 18.4201 6.08862 18.4131 6.14605 18.419H7.51106C7.57103 18.4123 7.63176 18.4191 7.68878 18.4388C7.74581 18.4586 7.79769 18.4909 7.84062 18.5333C7.88356 18.5757 7.91646 18.6272 7.93692 18.684C7.95738 18.7408 7.96488 18.8014 7.95887 18.8614C7.95887 19.1042 7.95887 19.3416 7.95887 19.5736Z" fill="#B9C1D2"/>
<path d="M3.5016 27.3267H2.84877C2.55203 27.3267 2.40096 27.1864 2.39557 26.895C2.39557 26.4418 2.39557 25.9832 2.39557 25.53C2.38956 25.47 2.39705 25.4093 2.41751 25.3526C2.43797 25.2958 2.47088 25.2443 2.51381 25.2019C2.55675 25.1594 2.60862 25.1272 2.66565 25.1074C2.72267 25.0876 2.7834 25.0809 2.84337 25.0876C3.28579 25.0876 3.7336 25.0876 4.17601 25.0876C4.23595 25.0813 4.29655 25.088 4.35361 25.1074C4.41067 25.1268 4.46283 25.1584 4.50646 25.2C4.55009 25.2416 4.58416 25.2921 4.60629 25.3482C4.62842 25.4043 4.63808 25.4645 4.63461 25.5246C4.63461 25.9886 4.63461 26.458 4.63461 26.922C4.63711 26.9772 4.6278 27.0323 4.60732 27.0836C4.58683 27.1349 4.55562 27.1813 4.51579 27.2196C4.47596 27.2579 4.42842 27.2873 4.37634 27.3057C4.32426 27.3242 4.26884 27.3313 4.21378 27.3267H3.5016Z" fill="#B9C1D2"/>
<path d="M2.39654 19.5143C2.39654 19.2877 2.39654 19.061 2.39654 18.8344C2.39252 18.7796 2.40037 18.7245 2.41955 18.6729C2.43874 18.6213 2.46881 18.5745 2.50771 18.5356C2.54662 18.4967 2.59346 18.4666 2.64503 18.4474C2.6966 18.4282 2.7517 18.4204 2.80658 18.4244C3.27597 18.4244 3.73997 18.4244 4.20396 18.4244C4.26387 18.4201 4.32398 18.429 4.38006 18.4505C4.43614 18.472 4.48681 18.5055 4.5285 18.5488C4.57018 18.592 4.60187 18.6439 4.6213 18.7007C4.64074 18.7575 4.64746 18.8179 4.64098 18.8776C4.64098 19.3146 4.64098 19.7516 4.64098 20.1833C4.64582 20.2483 4.63657 20.3135 4.61388 20.3747C4.59119 20.4358 4.55558 20.4913 4.50949 20.5373C4.4634 20.5834 4.40791 20.619 4.3468 20.6417C4.28569 20.6644 4.22041 20.6737 4.1554 20.6688C3.71839 20.6688 3.28676 20.6688 2.84974 20.6688C2.78749 20.6741 2.72485 20.6654 2.66637 20.6434C2.60789 20.6215 2.55503 20.5868 2.51164 20.5418C2.46825 20.4969 2.4354 20.4428 2.41549 20.3836C2.39558 20.3244 2.38911 20.2615 2.39654 20.1994C2.39654 19.9728 2.39654 19.7409 2.39654 19.5143Z" fill="#B9C1D2"/>
<path d="M13.436 18.4191H14.0835C14.1434 18.4117 14.2042 18.4177 14.2615 18.4368C14.3187 18.4558 14.371 18.4875 14.4145 18.5294C14.4579 18.5713 14.4914 18.6224 14.5126 18.6789C14.5337 18.7355 14.542 18.796 14.5367 18.8562C14.5367 19.3148 14.5367 19.768 14.5367 20.2212C14.5417 20.2817 14.5333 20.3426 14.5123 20.3996C14.4912 20.4565 14.4578 20.5082 14.4146 20.5509C14.3714 20.5936 14.3194 20.6263 14.2622 20.6467C14.2049 20.6671 14.1439 20.6747 14.0835 20.669C13.6518 20.669 13.2148 20.669 12.7832 20.669C12.7178 20.6765 12.6516 20.6693 12.5894 20.648C12.5272 20.6267 12.4705 20.5917 12.4234 20.5457C12.3764 20.4997 12.3402 20.4438 12.3175 20.3821C12.2948 20.3203 12.2862 20.2543 12.2922 20.1888C12.2922 19.7572 12.2922 19.3202 12.2922 18.8885C12.2845 18.8262 12.291 18.763 12.3112 18.7035C12.3314 18.6441 12.3649 18.59 12.409 18.5454C12.4532 18.5007 12.5069 18.4666 12.5661 18.4457C12.6253 18.4248 12.6884 18.4175 12.7508 18.4245C12.9774 18.4137 13.204 18.4191 13.436 18.4191Z" fill="#B9C1D2"/>
<path d="M7.95878 26.2097V26.8625C7.96601 26.9222 7.96003 26.9827 7.94129 27.0397C7.92254 27.0968 7.89148 27.1491 7.85031 27.1928C7.80913 27.2366 7.75884 27.2708 7.703 27.2929C7.64716 27.3151 7.58713 27.3247 7.52716 27.3211C7.06316 27.3211 6.59377 27.3211 6.12978 27.3211C6.0749 27.3251 6.0198 27.3173 5.96823 27.2981C5.91665 27.2789 5.86982 27.2488 5.83091 27.2099C5.792 27.171 5.76193 27.1242 5.74275 27.0726C5.72356 27.0211 5.71571 26.966 5.71974 26.9111C5.71974 26.4417 5.71974 25.9777 5.71974 25.5137C5.71396 25.4561 5.72097 25.3978 5.74027 25.3432C5.75957 25.2886 5.79068 25.2389 5.83139 25.1977C5.87209 25.1565 5.92139 25.1247 5.97576 25.1048C6.03014 25.0848 6.08825 25.077 6.14596 25.0821C6.60996 25.0821 7.07396 25.0821 7.53795 25.0821C7.59291 25.0806 7.6476 25.0903 7.69867 25.1107C7.74975 25.131 7.79614 25.1616 7.83502 25.2004C7.8739 25.2393 7.90444 25.2857 7.92479 25.3368C7.94514 25.3879 7.95487 25.4426 7.95339 25.4975C7.95878 25.7349 7.95878 25.9723 7.95878 26.2097Z" fill="#B9C1D2"/>
<path d="M10.1175 25.0822H10.7703C10.8299 25.0763 10.89 25.0837 10.9463 25.1039C11.0027 25.124 11.0539 25.1564 11.0962 25.1988C11.1385 25.2411 11.1709 25.2922 11.1911 25.3486C11.2112 25.4049 11.2186 25.4651 11.2127 25.5246C11.2127 25.9832 11.2127 26.4364 11.2127 26.895C11.2177 26.9522 11.21 27.0098 11.1904 27.0638C11.1707 27.1177 11.1394 27.1667 11.0988 27.2073C11.0582 27.248 11.0092 27.2792 10.9553 27.2989C10.9013 27.3185 10.8437 27.3262 10.7865 27.3212H9.4215C9.36152 27.328 9.3008 27.3212 9.24378 27.3014C9.18675 27.2817 9.13487 27.2494 9.09194 27.207C9.049 27.1646 9.0161 27.1131 8.99564 27.0563C8.97518 26.9995 8.96768 26.9389 8.97369 26.8788C8.97369 26.4256 8.97369 25.967 8.97369 25.5138C8.97058 25.4563 8.97961 25.3988 9.0002 25.345C9.02078 25.2912 9.05247 25.2424 9.09319 25.2017C9.13391 25.161 9.18275 25.1293 9.23652 25.1087C9.2903 25.0881 9.34782 25.0791 9.40532 25.0822C9.66429 25.0714 9.90168 25.0822 10.1175 25.0822Z" fill="#B9C1D2"/>
<path d="M14.5345 26.2099C14.5345 26.4365 14.5345 26.6685 14.5345 26.8951C14.5394 26.9523 14.5318 27.0099 14.5121 27.0639C14.4924 27.1178 14.4612 27.1668 14.4206 27.2075C14.38 27.2481 14.331 27.2793 14.2771 27.299C14.2231 27.3186 14.1655 27.3263 14.1083 27.3213C13.6551 27.3213 13.1965 27.3213 12.7433 27.3213C12.6808 27.3247 12.6183 27.3145 12.56 27.2916C12.5018 27.2687 12.4491 27.2336 12.4057 27.1886C12.3622 27.1436 12.3289 27.0897 12.308 27.0307C12.2871 26.9717 12.2792 26.9089 12.2847 26.8466C12.2847 26.4257 12.2847 25.9995 12.2847 25.5733C12.2776 25.5061 12.2859 25.4383 12.3087 25.3747C12.3316 25.3112 12.3686 25.2537 12.4168 25.2065C12.4651 25.1593 12.5234 25.1236 12.5874 25.1021C12.6514 25.0806 12.7195 25.0738 12.7864 25.0823H14.0597C14.3834 25.0823 14.5237 25.2334 14.5345 25.5571C14.5399 25.7783 14.5345 25.9941 14.5345 26.2099Z" fill="#B9C1D2"/>
<path d="M3.50139 29.8247H2.69749C2.37378 29.8247 2.36298 29.5765 2.40075 29.3607C2.43852 29.1449 2.17415 28.6432 2.6921 28.5946C3.23022 28.5394 3.77257 28.5394 4.31069 28.5946C4.85022 28.6539 4.55348 29.1341 4.61283 29.4201C4.63275 29.469 4.63927 29.5223 4.63169 29.5746C4.62411 29.6269 4.60273 29.6762 4.56973 29.7174C4.53674 29.7587 4.49334 29.7903 4.444 29.8092C4.39467 29.8281 4.3412 29.8334 4.2891 29.8247H3.50139Z" fill="#EE5361"/>
<path d="M6.80921 29.8246C6.54484 29.8246 6.26968 29.8246 6.00531 29.8246C5.74094 29.8246 5.69238 29.7653 5.69238 29.0639C5.69238 28.8319 5.69238 28.5891 6.0107 28.5891C6.55023 28.5891 7.08976 28.5891 7.62929 28.5891C7.93143 28.5891 7.94222 28.6539 7.94222 29.3822C7.94222 29.6142 7.94222 29.83 7.6239 29.83L6.80921 29.8246Z" fill="#8BCEB4"/>
<path d="M10.0783 29.8246C9.82472 29.8246 9.53877 29.8246 9.30678 29.8246C9.07478 29.8246 8.98846 29.7599 8.98846 29.0963C8.98846 28.8643 8.9399 28.5891 9.30678 28.5891C9.84631 28.5891 10.3858 28.5891 10.9254 28.5891C11.2275 28.5891 11.2383 28.6485 11.2383 29.3498C11.2383 29.5818 11.2653 29.83 10.92 29.83L10.0783 29.8246Z" fill="#6BB2D8"/>
<path d="M13.4142 28.5622C13.6516 28.5622 13.889 28.5622 14.1264 28.5622C14.1871 28.5517 14.2492 28.5517 14.3099 28.5622C14.7523 28.7834 14.4771 29.1881 14.5311 29.501C14.5688 29.6952 14.4232 29.7977 14.2235 29.7977H12.6049C12.561 29.8041 12.5161 29.8 12.474 29.786C12.4318 29.772 12.3935 29.7483 12.3621 29.7169C12.3307 29.6855 12.307 29.6472 12.293 29.605C12.2789 29.5628 12.2749 29.518 12.2812 29.474C12.2812 28.5137 12.1841 28.5406 13.1337 28.5514L13.4142 28.5622Z" fill="#FDC743"/>
</svg>
