<svg width="18" height="32" viewBox="0 0 18 32" fill="none" xmlns="http://www.w3.org/2000/svg">
<path d="M11.3482 12.5057C11.8176 12.5057 12.2816 12.5057 12.751 12.5057C12.9626 12.5026 13.1727 12.5426 13.3684 12.6234C13.5641 12.7041 13.7413 12.8238 13.8892 12.9753C14.0371 13.1267 14.1526 13.3067 14.2287 13.5042C14.3048 13.7018 14.3399 13.9127 14.3318 14.1242C14.3318 14.7771 14.3318 15.4299 14.3318 16.0827V29.9217C14.3318 31.0978 13.7221 31.6913 12.5406 31.6967H11.3482C11.2393 31.5273 11.197 31.3236 11.2295 31.1248C11.2295 25.1217 11.2295 19.1167 11.2295 13.1099C11.1913 12.9007 11.2337 12.6849 11.3482 12.5057Z" fill="#FEC843"/>
<path d="M11.3498 12.5055C11.3498 13.1853 11.3498 13.8651 11.3498 14.5449C11.3498 20.2531 11.3498 25.9596 11.3498 31.6642H8.73304C8.67417 31.5884 8.63098 31.5017 8.60597 31.4091C8.58096 31.3164 8.57463 31.2198 8.58736 31.1247C8.58736 25.1107 8.58736 19.0949 8.58736 13.0774C8.57202 12.9815 8.5781 12.8834 8.60515 12.7901C8.6322 12.6968 8.67956 12.6107 8.74383 12.5379L11.3498 12.5055Z" fill="#43567B"/>
<path d="M8.74796 12.5002C8.74796 14.09 8.74796 15.6798 8.74796 17.2696V31.6643H6.58984C6.58984 31.5671 6.58984 31.4646 6.58984 31.3675V12.7861C6.58984 12.689 6.58984 12.5865 6.58984 12.4894L8.74796 12.5002Z" fill="#FEC843"/>
<path d="M6.93426 31.6588C6.46487 31.6588 5.99549 31.6858 5.53149 31.6588C5.31959 31.6619 5.10928 31.6219 4.91331 31.5412C4.71735 31.4605 4.53982 31.3409 4.39149 31.1895C4.24316 31.0381 4.12712 30.8582 4.05042 30.6607C3.97371 30.4631 3.93794 30.252 3.94527 30.0403C3.94527 29.3874 3.94527 28.7346 3.94527 28.0818C3.94527 23.4706 3.94527 18.8576 3.94527 14.2428C3.94527 13.0667 4.55494 12.4678 5.73111 12.4678H6.92348C7.03623 12.6356 7.08062 12.8402 7.04757 13.0397C7.04757 19.0429 7.04757 25.0478 7.04757 31.0546C7.08735 31.2631 7.04688 31.4789 6.93426 31.6588Z" fill="#FEC843"/>
<path d="M17.5373 7.4771C17.5373 11.8581 17.5373 16.2409 17.5373 20.6255C17.557 20.7712 17.5225 20.919 17.4402 21.0409C17.4402 22.0498 17.4402 23.0587 17.4402 24.0676C17.4402 25.6269 17.1273 26.1017 15.7137 26.6898H2.46825C2.35495 26.5926 2.19849 26.598 2.069 26.5441C1.6675 26.3819 1.32544 26.1004 1.08905 25.7376C0.852654 25.3749 0.733313 24.9482 0.747149 24.5155C0.747149 22.5084 0.747149 20.5014 0.747149 18.4943C0.747149 13.3904 0.747149 8.28821 0.747149 3.18785C0.707331 2.66018 0.868836 2.13699 1.19917 1.72358C1.5295 1.31016 2.00414 1.0372 2.5276 0.959595C2.69485 0.959595 2.85671 0.959595 3.01857 0.959595H14.7587C15.0285 0.959595 15.2983 0.959595 15.5626 0.959595H15.6382C16.1561 1.03682 16.6265 1.3049 16.9569 1.7112C17.2874 2.11749 17.454 2.63265 17.424 3.15548V7.06707C17.4697 7.12417 17.5033 7.18997 17.5228 7.26046C17.5423 7.33094 17.5472 7.40465 17.5373 7.4771Z" fill="#43567C"/>
<path d="M9.0838 11.4805H3.6885C3.14897 11.4805 3.03027 11.3672 3.03027 10.8331C3.03027 9.19651 3.03027 7.56174 3.03027 5.92876C3.03027 5.45937 3.14897 5.32449 3.61836 5.27593C3.7208 5.27054 3.82345 5.27054 3.92589 5.27593H14.2633C14.3675 5.27049 14.472 5.27049 14.5762 5.27593C15.0402 5.32989 15.1589 5.45937 15.1589 5.93416V10.8709C15.1589 11.351 15.0294 11.4805 14.5546 11.4805H9.0838Z" fill="#6BB2D8"/>
<path d="M4.75644 2.64837C4.75644 3.15553 4.75644 3.15553 5.29597 3.15553H12.8818C13.3889 3.15553 13.3889 3.15553 13.4213 2.64837C13.5939 2.64837 13.772 2.59442 13.9338 2.70233C14.0172 2.80613 14.074 2.92864 14.0993 3.05929C14.1247 3.18995 14.1179 3.32483 14.0795 3.45227C14.004 3.65189 13.8367 3.64111 13.6641 3.64111H4.54063C4.1144 3.64111 4.08203 3.60873 4.08203 3.1825C4.08203 2.75627 4.17375 2.64297 4.5676 2.64297L4.75644 2.64837Z" fill="#303B5A"/>
<path d="M8.55409 17.7175C8.55409 17.9225 8.55409 18.1329 8.55409 18.3379C8.55409 18.6616 8.40842 18.8289 8.0901 18.8397C7.64768 18.8397 7.20527 18.8397 6.76286 18.8397C6.70026 18.8434 6.63761 18.8332 6.57939 18.8099C6.52117 18.7866 6.46881 18.7508 6.42604 18.7049C6.38327 18.659 6.35114 18.6043 6.33196 18.5446C6.31277 18.4849 6.307 18.4217 6.31505 18.3595C6.31505 17.9279 6.31505 17.4909 6.31505 17.0592C6.30753 16.9946 6.31455 16.9291 6.3356 16.8675C6.35664 16.8059 6.39117 16.7498 6.43668 16.7033C6.48218 16.6567 6.53749 16.6209 6.59859 16.5985C6.65969 16.5761 6.72504 16.5676 6.78984 16.5737C7.22146 16.5737 7.65308 16.5737 8.0901 16.5737C8.15481 16.57 8.21955 16.5806 8.27971 16.6047C8.33987 16.6289 8.394 16.6659 8.43827 16.7133C8.48253 16.7606 8.51585 16.8171 8.53587 16.8788C8.55588 16.9404 8.5621 17.0057 8.55409 17.07C8.55949 17.2858 8.55409 17.5017 8.55409 17.7175Z" fill="#B9C1D2"/>
<path d="M15.1528 17.7227C15.1528 17.9331 15.1528 18.1381 15.1528 18.3432C15.1528 18.6615 14.9964 18.8341 14.6888 18.8395C14.2572 18.8395 13.8202 18.8395 13.3886 18.8395C13.0595 18.8395 12.9084 18.6561 12.903 18.3C12.8976 17.9439 12.903 17.4745 12.903 17.0645C12.8896 16.9907 12.8942 16.9147 12.9166 16.8431C12.939 16.7715 12.9784 16.7064 13.0314 16.6534C13.0845 16.6003 13.1496 16.5609 13.2212 16.5386C13.2928 16.5162 13.3687 16.5115 13.4425 16.5249H14.6511C15.0233 16.5249 15.1906 16.6868 15.1906 17.0645C15.1582 17.3127 15.1528 17.5177 15.1528 17.7227Z" fill="#B9C1D2"/>
<path d="M5.25168 17.7066C5.25168 17.9278 5.25168 18.1436 5.25168 18.3594C5.25862 18.4198 5.25256 18.4809 5.23392 18.5388C5.21529 18.5966 5.1845 18.6498 5.14362 18.6948C5.10275 18.7397 5.05273 18.7754 4.99693 18.7995C4.94112 18.8235 4.88081 18.8354 4.82006 18.8342C4.35606 18.8558 3.89207 18.8558 3.42807 18.8342C3.36975 18.8369 3.31155 18.8269 3.25745 18.805C3.20335 18.783 3.15464 18.7496 3.11466 18.7071C3.07468 18.6646 3.04438 18.6139 3.02583 18.5585C3.00729 18.5032 3.00095 18.4444 3.00724 18.3864C3.00724 17.9332 3.00724 17.48 3.00724 17.0214C3.00317 16.9611 3.01215 16.9006 3.03357 16.844C3.05498 16.7875 3.08833 16.7362 3.13134 16.6937C3.17434 16.6513 3.226 16.6185 3.28279 16.5978C3.33958 16.5771 3.40017 16.5688 3.46044 16.5736C3.90285 16.5736 4.35067 16.5736 4.79848 16.5736C4.86079 16.5727 4.9226 16.5847 4.98006 16.6089C5.03752 16.633 5.08939 16.6687 5.13243 16.7137C5.17546 16.7588 5.20875 16.8122 5.2302 16.8707C5.25164 16.9293 5.26079 16.9916 5.25707 17.0538V17.7066H5.25168Z" fill="#B9C1D2"/>
<path d="M11.8567 17.7283V18.3811C11.8614 18.4411 11.8532 18.5014 11.8328 18.5581C11.8125 18.6147 11.7803 18.6664 11.7385 18.7098C11.6967 18.7531 11.6462 18.7871 11.5904 18.8095C11.5345 18.8319 11.4745 18.8422 11.4143 18.8397C10.9719 18.8397 10.5295 18.8397 10.0871 18.8397C9.75258 18.8397 9.6123 18.6617 9.6123 18.3002C9.6123 17.9387 9.6123 17.4963 9.6123 17.097C9.6123 16.6978 9.76877 16.5575 10.1518 16.5575H11.3604C11.7219 16.5575 11.8729 16.7301 11.8999 17.097L11.8567 17.7283Z" fill="#B9C1D2"/>
<path d="M10.7018 15.5053C10.4913 15.5053 10.2863 15.5053 10.0813 15.5053C10.0192 15.5109 9.95659 15.5029 9.89783 15.482C9.83907 15.4611 9.78554 15.4277 9.74093 15.3841C9.69632 15.3405 9.66169 15.2878 9.63942 15.2295C9.61714 15.1713 9.60775 15.1089 9.6119 15.0467C9.6119 14.5989 9.6119 14.1565 9.6119 13.7086C9.60517 13.6487 9.61193 13.5879 9.6317 13.5309C9.65147 13.4739 9.68375 13.422 9.72616 13.3791C9.76858 13.3361 9.82006 13.3032 9.87684 13.2828C9.93362 13.2623 9.99426 13.2548 10.0543 13.2608C10.5129 13.2608 10.9661 13.2608 11.4193 13.2608C11.4772 13.254 11.5358 13.2603 11.5909 13.2793C11.646 13.2982 11.6961 13.3293 11.7375 13.3702C11.779 13.4112 11.8107 13.4609 11.8303 13.5157C11.85 13.5706 11.857 13.6291 11.8509 13.6871C11.8509 14.1403 11.8509 14.5935 11.8509 15.0521C11.8572 15.1146 11.8493 15.1777 11.8277 15.2366C11.806 15.2956 11.7713 15.3489 11.7262 15.3925C11.681 15.4361 11.6265 15.4689 11.5668 15.4885C11.5071 15.508 11.4438 15.5137 11.3816 15.5053C11.155 15.5107 10.9284 15.5053 10.7018 15.5053Z" fill="#B9C1D2"/>
<path d="M8.55448 14.4156V15.036C8.5616 15.0959 8.55559 15.1566 8.53687 15.214C8.51816 15.2713 8.4872 15.3238 8.44613 15.368C8.40506 15.4121 8.35487 15.4468 8.29904 15.4696C8.24322 15.4924 8.1831 15.5028 8.12287 15.5C7.65887 15.5 7.18947 15.5 6.72548 15.5C6.67054 15.5024 6.61573 15.4932 6.56456 15.4731C6.51339 15.4529 6.467 15.4223 6.42837 15.3832C6.38975 15.3441 6.35974 15.2973 6.34029 15.2458C6.32084 15.1944 6.31238 15.1395 6.31544 15.0846C6.31544 14.6152 6.31544 14.1512 6.31544 13.6872C6.30966 13.6296 6.31667 13.5714 6.33597 13.5167C6.35527 13.4621 6.38638 13.4124 6.42709 13.3712C6.46779 13.33 6.51709 13.2982 6.57146 13.2783C6.62584 13.2583 6.68395 13.2505 6.74166 13.2556C7.19487 13.2556 7.65347 13.2556 8.10667 13.2556C8.16693 13.2497 8.22775 13.2573 8.28474 13.2777C8.34174 13.2981 8.3935 13.3309 8.43631 13.3738C8.47913 13.4166 8.51192 13.4683 8.53235 13.5253C8.55279 13.5823 8.56034 13.6431 8.55448 13.7034C8.55988 13.9408 8.55448 14.1782 8.55448 14.4156Z" fill="#B9C1D2"/>
<path d="M4.11878 22.1577H3.46596C3.16922 22.1577 3.01815 22.0174 3.01275 21.7261C3.01275 21.2729 3.01275 20.8143 3.01275 20.3611C3.00674 20.301 3.01424 20.2404 3.0347 20.1836C3.05516 20.1268 3.08806 20.0753 3.131 20.0329C3.17393 19.9905 3.22581 19.9582 3.28283 19.9385C3.33986 19.9187 3.40058 19.9119 3.46056 19.9187C3.90297 19.9187 4.35078 19.9187 4.79319 19.9187C4.85365 19.9132 4.91457 19.9208 4.97187 19.9408C5.02918 19.9608 5.08154 19.9928 5.12547 20.0347C5.1694 20.0766 5.20387 20.1274 5.22659 20.1837C5.24931 20.2399 5.25974 20.3004 5.25719 20.3611C5.25719 20.8251 5.25719 21.2945 5.25719 21.7584C5.25883 21.8134 5.24893 21.8681 5.22815 21.919C5.20736 21.97 5.17614 22.016 5.1365 22.0541C5.09686 22.0922 5.04966 22.1216 4.99797 22.1404C4.94628 22.1592 4.89122 22.1669 4.83636 22.1631L4.11878 22.1577Z" fill="#B9C1D2"/>
<path d="M3.0139 14.3509C3.0139 14.1243 3.0139 13.8977 3.0139 13.6657C3.00977 13.6111 3.01758 13.5562 3.03681 13.5048C3.05603 13.4535 3.0862 13.407 3.12522 13.3684C3.16423 13.3299 3.21116 13.3004 3.26275 13.2819C3.31433 13.2633 3.36934 13.2562 3.42394 13.2611C3.89333 13.2611 4.35733 13.2611 4.82132 13.2611C4.88146 13.2558 4.94201 13.264 4.99855 13.2852C5.05509 13.3063 5.10619 13.3398 5.1481 13.3833C5.19 13.4268 5.22165 13.479 5.24072 13.5363C5.2598 13.5936 5.26582 13.6544 5.25834 13.7143C5.25834 14.1513 5.25834 14.5829 5.25834 15.02C5.26425 15.085 5.2557 15.1505 5.23331 15.2118C5.21092 15.2731 5.17524 15.3287 5.12883 15.3746C5.08241 15.4205 5.02642 15.4555 4.96487 15.4773C4.90331 15.499 4.8377 15.5068 4.77277 15.5001C4.34114 15.5001 3.90412 15.5001 3.4725 15.5001C3.4101 15.5071 3.34693 15.4999 3.28773 15.479C3.22853 15.4581 3.17485 15.424 3.13071 15.3793C3.08657 15.3347 3.05313 15.2806 3.0329 15.2211C3.01266 15.1617 3.00617 15.0984 3.0139 15.0361C3.0139 14.8041 3.0139 14.5775 3.0139 14.3509Z" fill="#B9C1D2"/>
<path d="M14.0525 13.2555H14.7053C14.765 13.2479 14.8256 13.2539 14.8827 13.273C14.9398 13.2921 14.9918 13.3238 15.0348 13.3658C15.0779 13.4079 15.1109 13.4591 15.1314 13.5156C15.1519 13.5722 15.1593 13.6327 15.1531 13.6926C15.1531 14.1458 15.1531 14.6044 15.1531 15.0576C15.1591 15.1176 15.1516 15.1783 15.1312 15.2351C15.1107 15.2918 15.0778 15.3433 15.0349 15.3857C14.9919 15.4281 14.9401 15.4604 14.883 15.4802C14.826 15.5 14.7653 15.5067 14.7053 15.5C14.2683 15.5 13.8313 15.5 13.3996 15.5C13.3348 15.5074 13.2691 15.5003 13.2073 15.4793C13.1455 15.4582 13.0891 15.4238 13.0421 15.3784C12.9952 15.333 12.9589 15.2778 12.9358 15.2168C12.9127 15.1557 12.9035 15.0903 12.9087 15.0252C12.9087 14.5936 12.9087 14.1566 12.9087 13.7195C12.902 13.6574 12.9092 13.5946 12.9298 13.5357C12.9504 13.4767 12.9839 13.4231 13.0278 13.3786C13.0717 13.3342 13.1249 13.3001 13.1836 13.2788C13.2424 13.2575 13.3051 13.2496 13.3673 13.2555C13.5939 13.2502 13.8259 13.2555 14.0525 13.2555Z" fill="#B9C1D2"/>
<path d="M8.55478 21.0463V21.6991C8.56301 21.7589 8.55774 21.8199 8.53936 21.8774C8.52099 21.9349 8.48997 21.9876 8.44858 22.0316C8.40719 22.0755 8.35648 22.1097 8.30017 22.1315C8.24386 22.1533 8.18338 22.1623 8.12317 22.1577H6.72578C6.67097 22.1587 6.61658 22.1481 6.56616 22.1266C6.51574 22.1051 6.47044 22.0732 6.43323 22.033C6.39603 21.9927 6.36778 21.945 6.35032 21.8931C6.33286 21.8411 6.32659 21.786 6.33192 21.7315C6.33192 21.2675 6.33192 20.8035 6.33192 20.3395C6.32711 20.2821 6.33478 20.2243 6.35442 20.1701C6.37406 20.1159 6.4052 20.0666 6.4457 20.0256C6.4862 19.9846 6.53509 19.9528 6.58903 19.9325C6.64296 19.9122 6.70066 19.9038 6.75815 19.9079C7.22214 19.9079 7.68615 19.9079 8.15554 19.9079C8.21047 19.9055 8.26529 19.9147 8.31646 19.9348C8.36763 19.955 8.41402 19.9856 8.45264 20.0247C8.49127 20.0638 8.52127 20.1106 8.54072 20.162C8.56017 20.2135 8.56864 20.2684 8.56558 20.3233C8.56558 20.5715 8.55478 20.8089 8.55478 21.0463Z" fill="#B9C1D2"/>
<path d="M10.7552 19.9133H11.408C11.4678 19.9064 11.5283 19.9131 11.5852 19.9329C11.642 19.9527 11.6936 19.985 11.7361 20.0276C11.7787 20.0701 11.8111 20.1217 11.8308 20.1786C11.8506 20.2354 11.8573 20.2959 11.8504 20.3557C11.8504 20.8143 11.8504 21.2675 11.8504 21.7207C11.8562 21.7784 11.8492 21.8365 11.8299 21.8912C11.8106 21.9458 11.7795 21.9955 11.7388 22.0367C11.6981 22.0779 11.6488 22.1097 11.5944 22.1297C11.54 22.1496 11.4819 22.1574 11.4242 22.1523H10.0592C9.99922 22.1591 9.9385 22.1523 9.88147 22.1325C9.82445 22.1128 9.77257 22.0805 9.72963 22.0381C9.6867 21.9957 9.65379 21.9442 9.63333 21.8874C9.61287 21.8306 9.60538 21.77 9.61139 21.7099C9.61139 21.2567 9.61139 20.7981 9.61139 20.3449C9.60827 20.2874 9.6173 20.2299 9.63789 20.1761C9.65848 20.1223 9.69016 20.0735 9.73088 20.0328C9.7716 19.9921 9.82044 19.9604 9.87422 19.9398C9.928 19.9192 9.98551 19.9102 10.043 19.9133C10.2804 19.9079 10.5178 19.9133 10.7552 19.9133Z" fill="#B9C1D2"/>
<path d="M15.1524 21.0464C15.1524 21.273 15.1524 21.4996 15.1524 21.7316C15.1573 21.7889 15.1496 21.8465 15.13 21.9004C15.1103 21.9544 15.0791 22.0034 15.0384 22.044C14.9978 22.0846 14.9488 22.1158 14.8949 22.1355C14.8409 22.1552 14.7833 22.1628 14.7261 22.1579H13.3449C13.2826 22.1613 13.2203 22.1512 13.1623 22.1283C13.1043 22.1053 13.052 22.0701 13.0089 22.0249C12.9658 21.9798 12.933 21.9259 12.9128 21.8669C12.8926 21.8078 12.8854 21.7452 12.8917 21.6831C12.8917 21.2569 12.8917 20.836 12.8917 20.4098C12.8838 20.3422 12.8914 20.2737 12.9139 20.2095C12.9363 20.1453 12.9732 20.0871 13.0215 20.0392C13.0699 19.9914 13.1285 19.9552 13.193 19.9334C13.2574 19.9116 13.326 19.9048 13.3935 19.9134C13.8143 19.9134 14.2405 19.9134 14.6614 19.9134C14.9851 19.9134 15.1254 20.0591 15.1362 20.3882C15.1578 20.6094 15.1524 20.8306 15.1524 21.0464Z" fill="#B9C1D2"/>
<path d="M4.12398 24.6342H3.31468C2.99097 24.6342 2.98017 24.3914 3.01794 24.1756C3.05571 23.9597 2.79133 23.458 3.30928 23.4094C3.8474 23.3543 4.38975 23.3543 4.92787 23.4094C5.4674 23.4634 5.17067 23.949 5.23001 24.2295C5.24943 24.2787 5.2556 24.3321 5.2479 24.3844C5.24019 24.4368 5.21889 24.4861 5.18612 24.5277C5.15335 24.5692 5.11026 24.6013 5.06116 24.621C5.01205 24.6406 4.95865 24.647 4.90629 24.6396L4.12398 24.6342Z" fill="#EE5361"/>
<path d="M7.41031 24.6342C7.14054 24.6342 6.87078 24.6342 6.60101 24.6342C6.33125 24.6342 6.28809 24.5749 6.28809 23.8735C6.28809 23.6415 6.28809 23.3933 6.61181 23.3933C7.15134 23.3933 7.69087 23.3933 8.2304 23.3933C8.53253 23.3933 8.54332 23.4581 8.54332 24.1864C8.54332 24.4184 8.54332 24.6342 8.22499 24.6342H7.41031Z" fill="#8BCEB4"/>
<path d="M10.6966 24.6342C10.443 24.6342 10.157 24.6342 9.92503 24.6342C9.69303 24.6342 9.6067 24.5695 9.6121 23.9059C9.6121 23.6739 9.55814 23.3987 9.93042 23.3933C10.4699 23.3933 11.0095 23.3933 11.549 23.3933C11.8511 23.3933 11.8619 23.4473 11.8619 24.154C11.8619 24.386 11.8943 24.6288 11.5436 24.6288L10.6966 24.6342Z" fill="#6BB2D8"/>
<path d="M14.0301 23.3931H14.7477C14.8081 23.3795 14.8707 23.3795 14.9311 23.3931C15.3681 23.6143 15.093 24.0136 15.1469 24.3319C15.1847 24.5261 15.039 24.6287 14.8394 24.6287H13.2208C13.1764 24.6359 13.131 24.6326 13.0881 24.619C13.0452 24.6054 13.0062 24.5819 12.9741 24.5503C12.942 24.5188 12.9179 24.4801 12.9035 24.4375C12.8892 24.3949 12.8852 24.3494 12.8917 24.3049C12.8917 23.3392 12.7946 23.3715 13.7442 23.3823L14.0301 23.3931Z" fill="#FDC743"/>
</svg>
