<svg width="23" height="29" viewBox="0 0 23 29" fill="none" xmlns="http://www.w3.org/2000/svg">
<path d="M22.8975 5.90338C22.892 6.14861 22.8157 6.38701 22.6778 6.58993C22.54 6.79284 22.3465 6.95162 22.1206 7.04718C21.887 7.15697 21.6248 7.19052 21.3712 7.14307C21.1175 7.09563 20.8851 6.9696 20.707 6.78282C20.3329 6.42108 19.9403 6.07893 19.5308 5.75771C17.0317 3.79048 13.8788 2.84557 10.7096 3.11402C7.7244 3.30286 4.90789 4.56357 2.77846 6.66412C2.63515 6.83244 2.45353 6.9639 2.24886 7.04746C2.04419 7.13102 1.82246 7.16424 1.60229 7.14431C1.35945 7.11788 1.12925 7.02245 0.938943 6.86931C0.748636 6.71616 0.60619 6.51172 0.528434 6.28015C0.450677 6.04858 0.440864 5.79958 0.50018 5.56262C0.559495 5.32565 0.685456 5.11064 0.863137 4.94302C3.73612 2.10915 7.60616 0.515428 11.6416 0.504331C15.677 0.493233 19.5558 2.06565 22.4443 4.88368C22.5851 5.014 22.6979 5.1716 22.7758 5.34691C22.8537 5.52222 22.8951 5.71155 22.8975 5.90338Z" fill="#8AC24A"/>
<path d="M12.3226 22.9687C12.3226 22.0245 12.3226 21.0858 12.3226 20.1416C12.312 19.8353 12.3647 19.5301 12.4774 19.245C12.5901 18.96 12.7604 18.7013 12.9776 18.485C13.1948 18.2688 13.4544 18.0997 13.7399 17.9884C14.0255 17.877 14.3309 17.8257 14.6372 17.8378H17.6424C17.777 17.8235 17.9132 17.8377 18.0421 17.8794C18.1709 17.9212 18.2895 17.9896 18.3902 18.0801C18.4909 18.1707 18.5714 18.2814 18.6265 18.4051C18.6816 18.5288 18.7101 18.6627 18.7101 18.7982C18.7101 18.9336 18.6816 19.0675 18.6265 19.1912C18.5714 19.3149 18.4909 19.4256 18.3902 19.5162C18.2895 19.6068 18.1709 19.6751 18.0421 19.7169C17.9132 19.7586 17.777 19.7728 17.6424 19.7585H14.7289C14.3513 19.7585 14.2595 19.8449 14.2595 20.2117V25.6664C14.2595 26.0333 14.3567 26.1304 14.7181 26.1358C15.3332 26.1358 15.9429 26.1358 16.5525 26.1358C16.736 26.1358 16.8223 26.1034 16.8169 25.893C16.8169 25.402 16.8169 24.911 16.8169 24.4201C16.8169 24.2636 16.7738 24.2042 16.6119 24.2096C16.45 24.215 16.1317 24.2096 15.8943 24.2096C15.7639 24.2103 15.6347 24.1854 15.514 24.1361C15.3933 24.0869 15.2834 24.0144 15.1908 23.9227C15.0981 23.831 15.0244 23.722 14.9738 23.6018C14.9233 23.4816 14.8969 23.3527 14.8962 23.2223C14.8996 23.0943 14.9286 22.9682 14.9815 22.8516C15.0344 22.7349 15.11 22.6301 15.204 22.5431C15.298 22.4561 15.4085 22.3888 15.5289 22.3452C15.6493 22.3015 15.7772 22.2824 15.9051 22.2889H17.7665C17.8945 22.2837 18.0222 22.3049 18.1417 22.3511C18.2612 22.3974 18.3699 22.4677 18.461 22.5578C18.5521 22.6479 18.6237 22.7558 18.6713 22.8748C18.7189 22.9937 18.7414 23.1212 18.7376 23.2493C18.7376 24.5226 18.7376 25.7959 18.7376 27.0692C18.7464 27.19 18.7309 27.3113 18.692 27.426C18.6531 27.5407 18.5915 27.6465 18.5111 27.737C18.4306 27.8275 18.3328 27.901 18.2234 27.9531C18.1141 28.0052 17.9954 28.0348 17.8744 28.0403C16.6646 28.1078 15.4517 28.097 14.2434 28.0079C13.7179 27.9431 13.2347 27.6874 12.8855 27.2895C12.5364 26.8916 12.3456 26.3792 12.3496 25.8498C12.3496 24.8679 12.3496 23.8859 12.3496 22.9094L12.3226 22.9687Z" fill="#607D8A"/>
<path d="M11.6652 5.36393C13.029 5.35247 14.3814 5.61225 15.6439 6.12816C16.9063 6.64407 18.0536 7.40582 19.019 8.36912C19.1977 8.53474 19.3253 8.74793 19.3868 8.98363C19.4484 9.21932 19.4414 9.4677 19.3665 9.69953C19.2917 9.93136 19.1522 10.137 18.9645 10.2922C18.7768 10.4475 18.5486 10.5458 18.3068 10.5758C18.1023 10.6008 17.8948 10.5766 17.7015 10.5053C17.5082 10.434 17.3347 10.3176 17.1954 10.1657C16.1907 9.16063 14.9228 8.45936 13.5374 8.14251C12.2449 7.81889 10.8911 7.83146 9.60483 8.17899C8.31856 8.52653 7.14265 9.19748 6.18901 10.128C5.99542 10.3574 5.72816 10.5124 5.43291 10.5665C5.13767 10.6206 4.83279 10.5705 4.57042 10.4247C4.39671 10.3332 4.24687 10.2022 4.13289 10.0423C4.01891 9.88243 3.94397 9.69807 3.91407 9.50401C3.88417 9.30995 3.90016 9.11159 3.96073 8.92481C4.0213 8.73804 4.12478 8.56804 4.26288 8.42846C5.64482 7.01919 7.40698 6.04251 9.33446 5.61751C10.0976 5.43502 10.8807 5.34981 11.6652 5.36393Z" fill="#8AC24A"/>
<path d="M11.0227 22.9687C11.0227 24.3391 11.0227 25.7095 11.0227 27.0799C11.0307 27.2103 11.0122 27.341 10.9683 27.464C10.9244 27.587 10.856 27.6999 10.7673 27.7957C10.6785 27.8915 10.5712 27.9684 10.4519 28.0215C10.3326 28.0747 10.2037 28.1031 10.0731 28.1051C9.94297 28.1023 9.81468 28.0738 9.6956 28.0212C9.57653 27.9686 9.46902 27.893 9.37926 27.7988C9.2895 27.7045 9.21927 27.5934 9.17261 27.4719C9.12594 27.3504 9.10377 27.2209 9.10735 27.0908C9.10735 26.2491 9.10735 25.4074 9.10735 24.5657C9.10735 24.3068 9.03182 24.2528 8.78903 24.2528C8.02831 24.2915 7.26584 24.2789 6.50682 24.215C5.99717 24.1404 5.53012 23.8886 5.18773 23.5037C4.84534 23.1189 4.64951 22.6258 4.63465 22.1109C4.63465 21.0318 4.63465 19.9528 4.63465 18.8737C4.62659 18.7436 4.64511 18.6132 4.68907 18.4905C4.73303 18.3677 4.80151 18.2553 4.89035 18.1598C4.9792 18.0644 5.08654 17.9881 5.20583 17.9355C5.32512 17.883 5.45387 17.8552 5.58423 17.854C5.715 17.8539 5.84445 17.8802 5.9648 17.9314C6.08516 17.9825 6.19395 18.0574 6.28464 18.1517C6.37533 18.2459 6.44605 18.3574 6.49258 18.4797C6.5391 18.6019 6.56046 18.7322 6.55537 18.8629C6.55537 19.8449 6.55537 20.8268 6.55537 21.8034C6.55537 22.2781 6.62551 22.3429 7.0949 22.3429C7.56429 22.3429 8.17396 22.3429 8.74586 22.3429C9.02642 22.3429 9.11813 22.2889 9.11274 21.9868C9.11274 20.9473 9.11274 19.906 9.11274 18.8629C9.10275 18.7021 9.13339 18.5414 9.20182 18.3955C9.27024 18.2496 9.37427 18.1233 9.50431 18.0282C9.63436 17.9331 9.78623 17.8722 9.94597 17.8512C10.1057 17.8302 10.2682 17.8497 10.4184 17.9079C10.6073 17.9799 10.7683 18.1103 10.8779 18.2802C10.9876 18.45 11.0402 18.6503 11.0281 18.8521C11.0281 20.1956 11.0227 21.566 11.0227 22.9687Z" fill="#607D8A"/>
<path d="M14.6487 14.0179C14.3429 14.0064 14.0525 13.8814 13.834 13.6672C13.2563 13.1176 12.4894 12.8112 11.692 12.8112C10.8947 12.8112 10.1278 13.1176 9.55011 13.6672C9.43167 13.788 9.2896 13.8831 9.13275 13.9465C8.97589 14.01 8.80764 14.0403 8.63851 14.0358C8.46939 14.0312 8.30302 13.9918 8.14981 13.9201C7.9966 13.8483 7.85984 13.7457 7.74808 13.6187C7.63145 13.4979 7.54006 13.3552 7.47927 13.1987C7.41847 13.0423 7.38949 12.8752 7.39401 12.7074C7.39853 12.5397 7.43648 12.3744 7.50561 12.2215C7.57475 12.0685 7.67367 11.9309 7.79663 11.8166C8.83593 10.7827 10.2423 10.2024 11.7082 10.2024C13.1742 10.2024 14.5805 10.7827 15.6198 11.8166C15.8021 11.9975 15.9254 12.2294 15.9735 12.4816C16.0217 12.7339 15.9924 12.9949 15.8896 13.2302C15.7839 13.4696 15.6096 13.6722 15.3887 13.8124C15.1678 13.9526 14.9102 14.0242 14.6487 14.0179Z" fill="#8AC24A"/>
</svg>
