<svg width="24" height="29" viewBox="0 0 24 29" fill="none" xmlns="http://www.w3.org/2000/svg">
<path d="M20.7455 28.256H11.9296C11.7731 28.1265 11.8001 27.9431 11.8001 27.7758C11.8001 26.7885 11.8001 25.8065 11.8001 24.8192C11.8001 23.8319 11.8001 22.8284 11.8001 21.8302C11.7859 21.6593 11.8043 21.4872 11.8541 21.3231C11.908 21.1558 12.0537 21.1666 12.1886 21.1612C12.5824 21.1612 12.9817 21.1612 13.3755 21.1612C13.4861 21.1647 13.596 21.1424 13.6965 21.0961C13.797 21.0498 13.8852 20.9807 13.9544 20.8943C14.0235 20.8079 14.0715 20.7066 14.0947 20.5984C14.1178 20.4902 14.1154 20.3781 14.0877 20.271C14.0482 20.0936 13.9465 19.9363 13.801 19.8275C13.6555 19.7186 13.4759 19.6654 13.2946 19.6775C12.9277 19.6775 12.5555 19.6775 12.1886 19.6775C12.0645 19.6775 11.9296 19.6775 11.8595 19.5426C11.7651 19.1745 11.7651 18.7885 11.8595 18.4204C11.9188 18.2693 12.0537 18.2801 12.1778 18.2747C12.4961 18.2747 12.8144 18.2747 13.1273 18.2747C13.2828 18.2805 13.4381 18.2586 13.586 18.21C13.7476 18.1596 13.8867 18.0545 13.9792 17.9127C14.0718 17.7709 14.1121 17.6013 14.0931 17.433C14.0747 17.2646 13.9956 17.1086 13.8704 16.9944C13.7452 16.8802 13.5827 16.8155 13.4133 16.8126C12.8738 16.7856 12.3774 16.8126 11.8649 16.8126C11.7246 16.8126 11.5627 16.8504 11.4764 16.6885C11.4707 16.6613 11.4739 16.6329 11.4856 16.6077C11.4972 16.5824 11.5167 16.5616 11.5411 16.5482C11.7893 16.4241 11.8001 16.2083 11.8001 15.9709C11.8001 15.5447 11.8001 15.1239 11.8001 14.6976C11.7929 14.5985 11.8076 14.499 11.8433 14.4063C11.8493 14.3777 11.8603 14.3503 11.8757 14.3254C11.9758 14.2518 12.0895 14.1987 12.2102 14.1689C12.4329 14.1021 12.6263 13.9616 12.7586 13.7705C12.891 13.5793 12.9544 13.3488 12.9385 13.1168C12.9259 12.8942 12.8395 12.6821 12.6929 12.5141C12.5464 12.3461 12.3481 12.2316 12.1292 12.1888L12.0267 12.1511C11.9674 12.1025 11.8918 12.0755 11.8595 11.9946C11.7763 11.4583 11.7763 10.9123 11.8595 10.376L11.8918 10.2897C11.9469 10.2356 12.0157 10.1975 12.0908 10.1794C12.1658 10.1614 12.2444 10.1641 12.3181 10.1872C12.7225 10.2584 13.0974 10.4459 13.3971 10.7267C13.5266 10.8508 13.6453 10.9911 13.7856 11.1044C13.923 11.2265 14.102 11.2912 14.2857 11.2851C14.4694 11.2791 14.6438 11.2028 14.7729 11.072C14.8407 11.0107 14.8957 10.9365 14.9346 10.8538C14.9736 10.771 14.9957 10.6814 14.9997 10.5901C15.0037 10.4987 14.9896 10.4075 14.958 10.3216C14.9265 10.2358 14.8783 10.1571 14.8161 10.0901C14.5059 9.68535 14.1131 9.35139 13.6638 9.11043C13.2144 8.86948 12.7189 8.72706 12.2102 8.69268C12.1455 8.69023 12.0823 8.67229 12.026 8.64037C11.9696 8.60845 11.9218 8.56349 11.8864 8.50924C11.7878 7.97505 11.7769 7.42836 11.8541 6.89065C11.8541 6.86368 11.8541 6.8313 11.8541 6.80433C11.8812 6.75747 11.9223 6.7203 11.9717 6.69804C12.021 6.67579 12.0762 6.66955 12.1292 6.68023C13.1711 6.72728 14.1709 7.10527 14.9833 7.75929C15.3401 8.03785 15.669 8.35045 15.9653 8.69268C16.0805 8.84739 16.2517 8.95091 16.4422 8.98115C16.6327 9.01139 16.8275 8.96595 16.985 8.85453C17.0658 8.79918 17.1342 8.72749 17.1856 8.64411C17.2371 8.56072 17.2705 8.46749 17.2837 8.37041C17.2969 8.27332 17.2897 8.17453 17.2624 8.08042C17.2351 7.98632 17.1884 7.89898 17.1253 7.82403C16.6623 7.21883 16.0961 6.70012 15.4527 6.29177C14.5174 5.65818 13.425 5.2959 12.2965 5.24508C12.2137 5.25225 12.1304 5.23875 12.0542 5.20579C11.9779 5.17283 11.911 5.12144 11.8595 5.05624C11.8031 4.91223 11.7809 4.75708 11.7947 4.60304C11.7947 3.37291 11.7947 2.14278 11.7947 0.912657C11.7667 0.751267 11.8015 0.585284 11.8918 0.44867C11.9782 0.378531 12.0807 0.410899 12.1778 0.410899C14.951 0.410899 17.7241 0.448666 20.4973 0.410899C22.445 0.373132 23.6644 2.21292 23.659 3.57793C23.632 10.786 23.659 17.9888 23.659 25.1969C23.6645 25.8232 23.4839 26.4371 23.14 26.9606C22.7961 27.4841 22.3045 27.8936 21.7275 28.1373C21.407 28.221 21.0767 28.2609 20.7455 28.256Z" fill="#607C8A"/>
<path d="M11.9283 14.3362V16.1004C11.9283 16.5536 11.9283 16.5536 11.4966 16.6399C11.4643 16.7856 11.3294 16.7964 11.2215 16.8234C10.7784 16.9329 10.3871 17.1929 10.1145 17.559C9.84188 17.9251 9.7049 18.3745 9.72699 18.8304C9.72699 19.37 9.72699 19.9095 9.72699 20.449C9.76476 21.1396 9.72699 21.8248 9.72699 22.5154C9.72264 22.6788 9.74823 22.8415 9.80252 22.9956C9.85561 23.1359 9.94898 23.2573 10.0709 23.3447C10.1928 23.432 10.3378 23.4814 10.4877 23.4866C10.6337 23.4823 10.7751 23.435 10.8942 23.3505C11.0132 23.266 11.1046 23.1481 11.1567 23.0118C11.2311 22.8249 11.266 22.6247 11.2593 22.4237C11.2593 22.127 11.2593 21.8302 11.2593 21.5281C11.2593 21.3878 11.2592 21.2367 11.4427 21.2044C11.6261 21.172 11.8096 21.1018 11.9283 21.3123V28.2722H3.00984C2.98768 28.2563 2.96152 28.247 2.93432 28.2452C1.77433 28.2075 1.07833 27.5115 0.549588 26.5835C0.253215 25.9866 0.117482 25.3227 0.155742 24.6574C0.155742 21.4202 0.155742 18.183 0.155742 14.9782V4.14443C0.140917 3.68192 0.186257 3.21946 0.290624 2.76864C0.411298 2.28766 0.637552 1.8396 0.952983 1.45698C1.26842 1.07435 1.66509 0.766766 2.11422 0.556564C2.45465 0.412007 2.8242 0.349185 3.19328 0.373126C6.0366 0.373126 8.87992 0.373126 11.7286 0.373126C11.7988 0.373126 11.8743 0.346153 11.9337 0.410897V5.01848C11.7934 5.23429 11.556 5.17494 11.3672 5.19652C9.90172 5.33707 8.526 5.96601 7.46096 6.98236C7.23436 7.19278 7.02933 7.42478 6.81892 7.64599C6.72364 7.73177 6.65076 7.83952 6.60657 7.95986C6.56238 8.08021 6.54822 8.20953 6.56534 8.33659C6.58201 8.48005 6.64292 8.61478 6.73959 8.72208C6.83626 8.82939 6.96391 8.90395 7.10487 8.93546C7.25849 8.98181 7.42289 8.97804 7.57422 8.92469C7.72555 8.87133 7.85597 8.77117 7.94655 8.63872C8.25761 8.25857 8.62089 7.92434 9.02561 7.64599C9.70922 7.1303 10.517 6.80457 11.3672 6.70181C11.5668 6.70181 11.788 6.62088 11.9498 6.81511V8.49844C11.9013 8.62793 11.7826 8.62794 11.6801 8.64412C10.8791 8.73844 10.126 9.07541 9.52197 9.60987C9.33695 9.76743 9.17367 9.94886 9.03639 10.1494C8.9387 10.2982 8.89801 10.4773 8.9218 10.6538C8.94558 10.8302 9.03225 10.9921 9.16587 11.1098C9.2971 11.2338 9.47085 11.303 9.65145 11.303C9.83205 11.303 10.0058 11.2338 10.137 11.1098C10.4206 10.804 10.7569 10.5518 11.1298 10.3652C11.3129 10.2887 11.5051 10.2361 11.7017 10.2088C11.8096 10.2088 11.9229 10.2088 11.9714 10.3221V11.9946C11.9067 12.1241 11.7826 12.1511 11.6639 12.1942C11.4615 12.2633 11.2843 12.391 11.1546 12.561C11.0249 12.731 10.9487 12.9357 10.9355 13.1492C10.9333 13.3637 10.9974 13.5738 11.1191 13.7505C11.2408 13.9272 11.4141 14.0621 11.6153 14.1365C11.6963 14.1743 11.8581 14.1797 11.9283 14.3362Z" fill="#546D79"/>
<path d="M9.60276 20.4166C9.60276 19.8771 9.60276 19.3375 9.60276 18.798C9.573 18.262 9.7547 17.7356 10.1088 17.3321C10.4629 16.9286 10.9612 16.68 11.4965 16.6399C12.1062 16.6399 12.7105 16.6399 13.3201 16.6399C13.4377 16.6311 13.5559 16.6463 13.6674 16.6846C13.779 16.723 13.8815 16.7836 13.9688 16.8629C14.0562 16.9421 14.1265 17.0383 14.1754 17.1456C14.2243 17.2529 14.2509 17.369 14.2535 17.4869C14.2514 17.6074 14.2254 17.7262 14.1769 17.8365C14.1283 17.9467 14.0583 18.0462 13.9709 18.1291C13.8835 18.2119 13.7805 18.2766 13.6678 18.3192C13.5551 18.3618 13.4351 18.3815 13.3147 18.3772H11.9281C11.8942 18.4189 11.8542 18.4552 11.8094 18.4851C11.7419 18.5102 11.6801 18.5485 11.6276 18.5979C11.5751 18.6472 11.533 18.7066 11.5039 18.7725C11.4747 18.8383 11.459 18.9094 11.4578 18.9814C11.4565 19.0535 11.4697 19.125 11.4965 19.1919C11.5007 19.2465 11.5233 19.298 11.5605 19.3382C11.5977 19.3783 11.6474 19.4047 11.7015 19.4131C11.7984 19.4259 11.8879 19.4716 11.9551 19.5426H13.3903C13.5947 19.536 13.7946 19.6041 13.9525 19.7342C14.1103 19.8643 14.2154 20.0474 14.2481 20.2493C14.2967 20.4166 14.2481 20.5083 14.0593 20.5299H13.8165C12.5702 20.5299 11.3185 20.5299 10.0722 20.5299C9.87792 20.5461 9.71607 20.5784 9.60276 20.4166Z" fill="#00BBD3"/>
<path d="M11.9223 6.80969C11.1919 6.81262 10.4714 6.97775 9.81263 7.29312C9.1539 7.60849 8.57343 8.06624 8.11318 8.6333C7.94361 8.8706 7.69157 9.03608 7.4064 9.0973C7.23045 9.12512 7.05019 9.09747 6.89066 9.01819C6.73114 8.93891 6.60025 8.81193 6.51616 8.65489C6.42593 8.49057 6.38987 8.30197 6.41313 8.11597C6.43638 7.92996 6.51776 7.75603 6.64566 7.61898C7.09089 7.09348 7.60022 6.62585 8.16174 6.227C9.27224 5.45646 10.587 5.03388 11.9384 5.01306L12.3809 5.06702C12.0356 5.3206 12.0733 5.68747 12.0679 6.05435C12.0679 6.29714 12.1489 6.56151 11.9438 6.76653C11.9276 6.78272 11.9277 6.78271 11.9223 6.80969Z" fill="#00A3B8"/>
<path d="M11.9346 6.78264C11.9346 6.3726 11.9346 5.95717 11.9346 5.54173C11.9346 5.1263 11.9346 5.10471 12.377 5.08313C13.892 5.17631 15.3262 5.79884 16.4289 6.84198C16.6968 7.08474 16.9491 7.34424 17.1842 7.61891C17.2745 7.70255 17.3462 7.80435 17.3944 7.9176C17.4427 8.03086 17.4665 8.15302 17.4643 8.27611C17.4621 8.39921 17.4338 8.52045 17.3815 8.63188C17.3291 8.74331 17.2538 8.84242 17.1605 8.92273C17.0672 9.00304 16.958 9.06274 16.84 9.09791C16.722 9.13307 16.598 9.1429 16.4759 9.12677C16.3538 9.11064 16.2366 9.06892 16.1318 9.00432C16.027 8.93972 15.937 8.85371 15.8677 8.75192C15.1226 7.83953 14.1026 7.19233 12.9597 6.90674C12.6144 6.80963 12.2691 6.84199 11.9346 6.78264Z" fill="#00BBD3"/>
<path d="M15.4209 20.4166C15.4209 19.8016 15.4209 19.1865 15.4209 18.5715C15.442 18.0726 15.6493 17.5997 16.0018 17.2462C16.3544 16.8926 16.8266 16.684 17.3254 16.6615C17.9405 16.6615 18.5556 16.6615 19.176 16.6615C19.2895 16.6571 19.4026 16.6758 19.5085 16.7166C19.6145 16.7573 19.7111 16.8192 19.7923 16.8984C19.8736 16.9777 19.9379 17.0727 19.9813 17.1776C20.0246 17.2824 20.0462 17.3951 20.0447 17.5086C20.0498 17.6225 20.0318 17.7363 19.9918 17.8431C19.9519 17.9499 19.8908 18.0475 19.8122 18.1302C19.7336 18.2128 19.6391 18.2787 19.5344 18.3239C19.4298 18.3692 19.317 18.3928 19.203 18.3934C18.7066 18.3934 18.2049 18.3934 17.7085 18.3934C17.2121 18.3934 17.169 18.4258 17.169 18.9329C17.169 19.4401 17.169 19.9095 17.169 20.4005C17.1359 20.4441 17.0924 20.4789 17.0424 20.5015C16.9925 20.5241 16.9377 20.5339 16.883 20.53C16.5 20.53 16.1115 20.53 15.7284 20.53C15.6717 20.5396 15.6135 20.5342 15.5596 20.5143C15.5056 20.4944 15.4578 20.4607 15.4209 20.4166Z" fill="#00BBD3"/>
<path d="M15.419 20.4165H17.1455C17.1455 20.751 17.1455 21.0855 17.1455 21.42C17.1455 21.7545 17.2264 21.8409 17.5609 21.8463C18.1005 21.8463 18.5968 21.8463 19.1094 21.8463C19.2465 21.8378 19.3838 21.8614 19.5103 21.9153C19.6367 21.9691 19.7489 22.0516 19.8379 22.1564C19.9269 22.2611 19.9903 22.3851 20.023 22.5186C20.0558 22.652 20.057 22.7913 20.0266 22.9253C19.9897 23.1 19.8982 23.2585 19.7653 23.3778C19.6325 23.4971 19.4651 23.571 19.2874 23.5889C18.52 23.6565 17.7475 23.6402 16.9836 23.5404C16.5386 23.4434 16.14 23.1976 15.8536 22.8434C15.5671 22.4893 15.41 22.0481 15.4082 21.5927C15.4136 21.215 15.419 20.8104 15.419 20.4165Z" fill="#00A3B8"/>
<path d="M9.60345 20.4166H13.9197C14.0546 20.4166 14.2056 20.449 14.2434 20.2548C14.2736 20.377 14.2757 20.5044 14.2495 20.6275C14.2233 20.7506 14.1694 20.8662 14.092 20.9654C14.0146 21.0647 13.9156 21.1451 13.8026 21.2005C13.6895 21.2559 13.5654 21.2849 13.4395 21.2853C12.9431 21.2853 12.4468 21.2853 11.9504 21.2853C11.276 21.2853 11.4109 21.2853 11.4109 21.8248C11.4352 22.1679 11.4352 22.5122 11.4109 22.8553C11.377 23.0722 11.2633 23.2686 11.092 23.406C10.9206 23.5433 10.7042 23.6115 10.4851 23.5973C10.266 23.5831 10.0601 23.4875 9.90797 23.3292C9.75581 23.1709 9.66836 22.9615 9.66281 22.742C9.58727 21.9705 9.59805 21.1935 9.60345 20.4166Z" fill="#00A3B8"/>
<path d="M11.9289 10.3057C11.6192 10.3087 11.3139 10.3792 11.0343 10.5125C10.7547 10.6458 10.5076 10.8385 10.3103 11.0773C10.208 11.2161 10.0665 11.3212 9.90403 11.3789C9.74152 11.4366 9.56543 11.4443 9.3985 11.401C9.25331 11.3705 9.11851 11.3029 9.00724 11.2048C8.89598 11.1067 8.81207 10.9814 8.76369 10.8411C8.71531 10.7009 8.70413 10.5505 8.73124 10.4047C8.75834 10.2588 8.8228 10.1225 8.91833 10.009C9.27375 9.54738 9.72831 9.1715 10.2484 8.90909C10.7686 8.64669 11.341 8.50446 11.9235 8.49292L12.2526 8.54686C11.9613 8.92453 12.0854 9.37235 12.0584 9.78779C12.0584 9.96583 12.1016 10.1547 11.9235 10.2895L11.9289 10.3057Z" fill="#00A3B8"/>
<path d="M11.9287 10.2896C11.9287 9.82565 11.9287 9.36165 11.9287 8.90305C11.9287 8.64947 12.0043 8.52538 12.2632 8.54696C12.7943 8.59049 13.3099 8.74738 13.7753 9.00705C14.2406 9.26671 14.6449 9.62312 14.9609 10.0523C15.0272 10.139 15.0758 10.238 15.1038 10.3436C15.1318 10.4491 15.1388 10.5592 15.1242 10.6674C15.1097 10.7756 15.074 10.8799 15.0191 10.9743C14.9642 11.0688 14.8913 11.1514 14.8044 11.2176C14.6375 11.3615 14.4208 11.4342 14.2009 11.4201C13.981 11.406 13.7754 11.3062 13.6282 11.1421C13.2911 10.7329 12.8284 10.4466 12.3118 10.3274C12.1823 10.3058 12.0366 10.3004 11.9287 10.2896Z" fill="#00BBD3"/>
<path d="M11.9281 14.336C11.6184 14.3319 11.3225 14.2073 11.1029 13.9888C10.8834 13.7703 10.7575 13.4749 10.752 13.1652C10.7613 12.8552 10.8879 12.5603 11.1062 12.34C11.3245 12.1197 11.6182 11.9904 11.9281 11.9783L12.1008 12.0268C12.0306 12.6473 12.1008 13.2731 12.063 13.8936C12.063 14.0447 12.063 14.2065 11.9281 14.3144V14.336Z" fill="#00A3B8"/>
<path d="M11.9287 14.3362V12.3669C11.9287 12.232 11.9287 12.0864 12.1014 12.0486C12.3963 12.0863 12.6644 12.239 12.8473 12.4735C13.0301 12.7079 13.113 13.005 13.0779 13.3003C13.0509 13.5855 12.9178 13.8502 12.705 14.042C12.4922 14.2338 12.2152 14.3388 11.9287 14.3362Z" fill="#00BBD3"/>
<path d="M11.9294 19.5372C11.2064 19.5372 11.3629 19.5965 11.3467 18.9976C11.344 18.9797 11.344 18.9615 11.3467 18.9437C11.3467 18.4041 11.4061 18.3718 11.9294 18.4041V19.5372Z" fill="#536D79"/>
<path d="M3.81907 20.4165C3.81907 19.4561 3.81907 18.4958 3.81907 17.5354C3.81122 17.3434 3.8689 17.1544 3.98263 16.9995C4.09636 16.8446 4.25938 16.733 4.44492 16.6829C4.63906 16.6273 4.84654 16.641 5.03166 16.7217C5.21678 16.8025 5.36797 16.9452 5.45924 17.1254C5.85849 17.8321 6.25234 18.5443 6.6516 19.2835C6.74871 19.2295 6.71095 19.1486 6.71095 19.0892C6.71095 18.5929 6.71095 18.0911 6.71095 17.5948C6.71095 17.3644 6.80247 17.1434 6.96537 16.9805C7.12827 16.8176 7.34921 16.7261 7.57959 16.7261C7.80997 16.7261 8.03092 16.8176 8.19382 16.9805C8.35672 17.1434 8.44824 17.3644 8.44824 17.5948C8.44824 18.5443 8.44824 19.4993 8.44824 20.4488C8.4093 20.4985 8.35766 20.5368 8.29878 20.5596C8.23991 20.5824 8.17598 20.5889 8.11373 20.5783C6.79728 20.5783 5.47902 20.5783 4.15897 20.5783C4.02949 20.546 3.88921 20.5568 3.81907 20.4165Z" fill="#00BBD3"/>
<path d="M3.82004 20.4165H8.43841C8.43841 21.188 8.43841 21.9542 8.43841 22.7257C8.43859 22.9161 8.37658 23.1013 8.26182 23.2533C8.14707 23.4052 7.98584 23.5155 7.80265 23.5674C7.61945 23.6193 7.42433 23.61 7.24693 23.5408C7.06953 23.4717 6.91955 23.3465 6.81982 23.1843C6.45294 22.5476 6.10225 21.9056 5.74077 21.2636C5.69662 21.1786 5.63166 21.1062 5.55194 21.0532V22.6717C5.56741 22.8912 5.50056 23.1086 5.36442 23.2814C5.22829 23.4543 5.03263 23.5702 4.81564 23.6066C4.59865 23.643 4.37588 23.5972 4.1908 23.4782C4.00573 23.3593 3.87163 23.1756 3.81466 22.9631C3.77077 22.7503 3.75624 22.5324 3.77149 22.3157C3.80386 21.6844 3.73911 21.0478 3.82004 20.4165Z" fill="#00A3B8"/>
</svg>
