<svg width="24" height="24" viewBox="0 0 24 24" fill="none" xmlns="http://www.w3.org/2000/svg">
<path d="M11.7802 14.9854C11.6904 14.383 11.3741 13.8376 10.8958 13.4606C10.4175 13.0835 9.8133 12.9033 9.20662 12.9567H3.50379C2.90385 12.9119 2.30914 13.0955 1.83887 13.4707C1.3686 13.8459 1.05752 14.385 0.967996 14.98C0.967996 17.0787 0.967996 19.1775 0.967996 21.2709C0.948218 21.605 0.99965 21.9395 1.11888 22.2523C1.23812 22.5651 1.42244 22.8489 1.65963 23.0851C1.89682 23.3213 2.18147 23.5044 2.49474 23.6222C2.80802 23.7401 3.14276 23.7901 3.47681 23.7689H9.27136C9.60541 23.7901 9.94015 23.7401 10.2534 23.6222C10.5667 23.5044 10.8514 23.3213 11.0886 23.0851C11.3257 22.8489 11.5101 22.5651 11.6293 22.2523C11.7485 21.9395 11.7999 21.605 11.7802 21.2709C11.7802 19.1829 11.7802 17.0841 11.7802 14.9854ZM9.95116 18.4006V21.163C9.95116 21.7672 9.7947 21.9399 9.21201 21.9399H3.54695C2.95886 21.9399 2.79701 21.7672 2.79701 21.1738C2.79701 19.3016 2.79701 17.4348 2.79701 15.5627C2.79701 14.953 2.95347 14.8019 3.58472 14.8019H9.14186C9.7893 14.8019 9.92959 14.953 9.92959 15.6004C9.93499 16.5338 9.92419 17.4672 9.92419 18.4006H9.95116Z" fill="#607C8A"/>
<path d="M22.0313 14.8506C21.7843 14.7903 21.5283 14.7757 21.276 14.8074C20.7958 14.8074 20.3049 14.8074 19.8247 14.7643C19.6064 14.7375 19.4058 14.6304 19.2622 14.4638C19.1185 14.2972 19.0421 14.0831 19.0478 13.8632C19.0428 13.6426 19.122 13.4284 19.2693 13.264C19.4166 13.0997 19.621 12.9976 19.8409 12.9784C20.9199 12.9514 22.0314 12.9784 23.132 12.9784C23.5474 12.9784 23.7794 13.2914 23.8981 13.6744C23.8981 15.1959 23.8981 16.7174 23.8981 18.2388C23.8981 18.951 23.5474 19.2801 22.8191 19.2855H20.0944C19.9615 19.3059 19.8256 19.2973 19.6963 19.2603C19.5669 19.2233 19.4471 19.1588 19.345 19.0712C19.2429 18.9836 19.161 18.8749 19.1048 18.7527C19.0486 18.6304 19.0195 18.4975 19.0195 18.3629C19.0195 18.2284 19.0486 18.0954 19.1048 17.9732C19.161 17.8509 19.2429 17.7423 19.345 17.6547C19.4471 17.567 19.5669 17.5025 19.6963 17.4655C19.8256 17.4285 19.9615 17.4199 20.0944 17.4403H21.7454C21.8803 17.4403 22.0475 17.4781 22.0421 17.2515C22.0788 16.4515 22.0752 15.6502 22.0313 14.8506Z" fill="#607C8A"/>
<path d="M16.0475 14.8289C15.3946 14.8289 14.7418 14.8289 14.0944 14.7965C13.973 14.8068 13.8508 14.7929 13.7349 14.7554C13.6189 14.718 13.5116 14.6578 13.4192 14.5785C13.3268 14.4991 13.2511 14.4022 13.1966 14.2932C13.1421 14.1843 13.1098 14.0656 13.1016 13.9441C13.0866 13.826 13.0962 13.7061 13.1297 13.5918C13.1633 13.4776 13.2201 13.3716 13.2966 13.2804C13.3731 13.1892 13.4677 13.1148 13.5743 13.0619C13.681 13.0089 13.7974 12.9787 13.9163 12.9729C14.9954 12.946 16.0367 12.9729 17.0995 12.9729C17.2219 12.9758 17.3423 13.0043 17.453 13.0564C17.5638 13.1085 17.6624 13.1832 17.7427 13.2756C17.8229 13.368 17.883 13.4762 17.919 13.5931C17.9551 13.7101 17.9663 13.8333 17.952 13.9549C17.952 14.8613 17.952 15.7677 17.952 16.6525C17.952 17.1921 17.952 17.7046 17.952 18.228C17.9647 18.3585 17.9501 18.4903 17.9091 18.6149C17.8681 18.7396 17.8015 18.8542 17.7137 18.9517C17.6259 19.0492 17.5187 19.1273 17.399 19.181C17.2794 19.2347 17.1498 19.263 17.0186 19.2638C16.8913 19.2642 16.7653 19.2382 16.6486 19.1875C16.5318 19.1369 16.4268 19.0626 16.3401 18.9693C16.2535 18.8761 16.1871 18.7659 16.145 18.6457C16.103 18.5256 16.0863 18.398 16.096 18.2711C16.096 17.2622 16.096 16.2479 16.096 15.239C16.096 15.0933 16.1715 14.9422 16.0475 14.8289Z" fill="#607C8A"/>
<path d="M13.098 20.6128C13.098 19.9114 13.098 19.2046 13.098 18.5033C13.098 17.8019 13.4649 17.4242 14.0098 17.4242C14.1386 17.4259 14.2657 17.4542 14.3831 17.5074C14.5004 17.5606 14.6055 17.6375 14.6916 17.7333C14.7778 17.8291 14.8432 17.9417 14.8837 18.064C14.9242 18.1863 14.9389 18.3156 14.927 18.4439C14.927 19.4798 14.927 20.5157 14.927 21.5516C14.927 21.8645 15.0241 21.9455 15.3209 21.9347C15.8172 21.9347 16.319 21.9347 16.8154 21.9347C16.9395 21.9216 17.0651 21.9341 17.1842 21.9715C17.3033 22.0089 17.4135 22.0703 17.5079 22.1521C17.6023 22.2338 17.6789 22.334 17.7329 22.4466C17.787 22.5591 17.8174 22.6815 17.8222 22.8063C17.827 22.931 17.8062 23.0555 17.7609 23.1718C17.7157 23.2882 17.647 23.394 17.5592 23.4828C17.4714 23.5715 17.3663 23.6413 17.2504 23.6877C17.1345 23.7342 17.0103 23.7564 16.8855 23.7529C15.9144 23.7799 14.9432 23.7799 13.972 23.7529C13.8517 23.7564 13.7319 23.7344 13.6206 23.6883C13.5094 23.6421 13.4091 23.5729 13.3265 23.4853C13.244 23.3976 13.1809 23.2934 13.1415 23.1796C13.1021 23.0657 13.0873 22.9449 13.098 22.8249C13.0818 22.1019 13.098 21.3574 13.098 20.6128Z" fill="#607C8A"/>
<path d="M21.39 21.9507C21.9296 21.9507 22.4421 21.9507 22.9655 21.9507C23.0836 21.9427 23.2022 21.9586 23.314 21.9975C23.4258 22.0364 23.5287 22.0974 23.6164 22.177C23.704 22.2567 23.7747 22.3532 23.8242 22.4607C23.8737 22.5683 23.9009 22.6848 23.9042 22.8032C23.918 22.9249 23.9058 23.0481 23.8682 23.1647C23.8307 23.2813 23.7688 23.3886 23.6867 23.4794C23.6045 23.5703 23.504 23.6426 23.3917 23.6916C23.2795 23.7405 23.1581 23.7651 23.0356 23.7635C21.9565 23.7959 20.8343 23.7905 19.7391 23.7635C19.62 23.761 19.5026 23.7341 19.3943 23.6846C19.286 23.635 19.1889 23.5638 19.1091 23.4754C19.0292 23.387 18.9683 23.2832 18.9301 23.1704C18.8918 23.0576 18.877 22.9381 18.8866 22.8194C18.8901 22.7008 18.9171 22.5841 18.966 22.476C19.0149 22.368 19.0849 22.2707 19.1717 22.1899C19.2585 22.1091 19.3606 22.0463 19.4719 22.0053C19.5832 21.9642 19.7015 21.9457 19.82 21.9507C20.3433 21.9399 20.8667 21.9507 21.39 21.9507Z" fill="#607C8A"/>
<path d="M11.8447 2.53834C11.7735 2.16561 11.5952 1.8217 11.3317 1.54862C11.0682 1.27555 10.7309 1.08514 10.3609 1.00068C9.9108 0.852053 9.43703 0.788043 8.96357 0.811859H3.82726C3.39258 0.794755 2.95747 0.832821 2.53237 0.925155C2.12992 1.08609 1.7751 1.34687 1.50136 1.68291C1.22761 2.01896 1.04397 2.4192 0.967739 2.84588C0.967739 4.95544 0.967739 7.07579 0.967739 9.18535C0.9545 9.51333 1.00989 9.84046 1.13036 10.1458C1.25084 10.4511 1.43375 10.728 1.66738 10.9585C1.901 11.1891 2.18018 11.3684 2.48708 11.4848C2.79397 11.6013 3.1218 11.6524 3.44958 11.6348C5.39728 11.6348 7.33959 11.6348 9.28729 11.6348C9.61886 11.6527 9.95047 11.6006 10.2606 11.482C10.5707 11.3633 10.8525 11.1809 11.0875 10.9463C11.3226 10.7118 11.5057 10.4305 11.625 10.1206C11.7442 9.81069 11.797 9.47918 11.7799 9.14758C11.7799 7.04881 11.7799 4.95004 11.7799 2.84588C11.8174 2.80518 11.8431 2.75512 11.8545 2.701C11.8659 2.64688 11.8625 2.59069 11.8447 2.53834ZM9.92393 9.09902C9.92393 9.63855 9.75129 9.81121 9.20636 9.81121H3.52512C2.95861 9.81121 2.79675 9.64396 2.79675 9.07205C2.79675 7.1873 2.79675 5.30613 2.79675 3.42856C2.79675 2.84048 2.96939 2.68402 3.56287 2.67323H6.36303C7.31261 2.67323 8.26218 2.67323 9.20096 2.67323C9.77826 2.67323 9.93472 2.8297 9.93472 3.40699C9.93831 5.28815 9.93472 7.18549 9.92393 9.09902Z" fill="#607C8A"/>
<path d="M23.8989 2.84596C23.8262 2.44929 23.662 2.07504 23.4195 1.75287C23.1769 1.4307 22.8626 1.16949 22.5015 0.989976C22.0514 0.850117 21.5803 0.789873 21.1095 0.811938H15.8599C15.4007 0.791231 14.9416 0.85523 14.5056 1.00076C14.1368 1.08449 13.8005 1.27409 13.5378 1.54628C13.2752 1.81848 13.0978 2.16142 13.0273 2.53302C13.0273 2.65172 13.0273 2.77042 13.1137 2.84596C13.1137 4.96631 13.0867 7.07587 13.1137 9.19083C13.1016 9.51504 13.1565 9.83825 13.275 10.1403C13.3936 10.4423 13.5732 10.7166 13.8026 10.946C14.032 11.1754 14.3063 11.355 14.6083 11.4735C14.9103 11.5921 15.2335 11.647 15.5577 11.6349C17.5324 11.6349 19.5107 11.6349 21.4926 11.6349C21.8179 11.6478 22.1424 11.5932 22.4457 11.4748C22.749 11.3563 23.0246 11.1764 23.2551 10.9464C23.4856 10.7164 23.6661 10.4413 23.7852 10.1382C23.9043 9.83521 23.9596 9.51082 23.9474 9.18543C23.9258 7.07587 23.9043 4.95552 23.8989 2.84596ZM22.0752 9.00199C22.0752 9.64943 21.9242 9.7897 21.2714 9.7897H18.5036C17.5594 9.7897 16.6098 9.7897 15.6602 9.7897C15.1207 9.7897 14.9427 9.62245 14.9427 9.08292C14.9427 7.19816 14.9427 5.3152 14.9427 3.43404C14.9427 2.80279 15.1045 2.65172 15.7574 2.65172H21.2875C21.9458 2.65172 22.0968 2.80818 22.0968 3.4772C22.0806 5.32239 22.0806 7.1622 22.0752 9.00199Z" fill="#607C8A"/>
</svg>
