<svg width="53" height="53" viewBox="0 0 53 53" fill="none" xmlns="http://www.w3.org/2000/svg">
<g clip-path="url(#clip0_1511_34534)">
<path d="M26.7699 0.250173C12.7196 -0.0268622 1.09327 11.1151 0.772461 25.1644C0.809121 32.316 3.97584 39.093 9.43825 43.7092V51.1619C9.43825 51.7601 9.92326 52.2451 10.5215 52.2451C10.7245 52.2451 10.9235 52.188 11.0956 52.0805L17.1335 48.3087C20.2097 49.4853 23.4764 50.0853 26.7699 50.0787C40.8202 50.3557 52.4466 39.2138 52.7674 25.1645C52.4466 11.1151 40.8202 -0.0268622 26.7699 0.250173Z" fill="#2196F3"/>
<path d="M43.8846 18.0151C43.5623 17.5831 42.9714 17.4538 42.4981 17.7118L31.2326 23.8537L24.2241 17.8439C23.7944 17.4755 23.1534 17.4999 22.7532 17.9002L9.75442 30.899C9.33268 31.3233 9.33471 32.0091 9.75909 32.4309C10.0984 32.7681 10.6186 32.8429 11.0392 32.6148L22.3047 26.4729L29.3196 32.4848C29.7494 32.8532 30.3904 32.8288 30.7906 32.4285L43.7894 19.4297C44.1682 19.0474 44.2088 18.4449 43.8846 18.0151Z" fill="#FAFAFA"/>
</g>
<defs>
<clipPath id="clip0_1511_34534">
<rect width="52" height="52" fill="white" transform="translate(0.769531 0.245117)"/>
</clipPath>
</defs>
</svg>
