<svg width="26" height="35" viewBox="0 0 26 35" fill="none" xmlns="http://www.w3.org/2000/svg">
<path d="M23.7517 19.5356C22.7141 17.6685 22.6234 16.013 23.3488 14.2198C23.8591 13.0132 24.1284 11.7184 24.1413 10.4084C24.1413 4.52164 19.309 0.669922 13.3652 0.669922H3.90209C2.86747 0.670811 1.87547 1.08221 1.14388 1.8138C0.412287 2.54539 0.000889237 3.53739 0 4.57201L0 30.8927C0.000890119 31.927 0.412395 32.9186 1.14408 33.6497C1.87577 34.3808 2.86778 34.7914 3.90209 34.7914H14.339C20.4339 34.7914 25.3569 30.8423 25.3569 24.7944C25.3569 22.7426 24.4469 20.7815 23.7517 19.5356ZM11.4779 20.2711C5.27891 20.2711 0.261931 18.8707 0.261931 17.148C0.261931 15.4253 5.27891 14.0183 11.4779 14.0183C17.677 14.0183 22.6973 15.4186 22.6973 17.148C22.6973 18.8774 17.6736 20.2711 11.4779 20.2711Z" fill="#296CF0"/>
</svg>
