<svg width="5" height="5" viewBox="0 0 5 5" fill="none" xmlns="http://www.w3.org/2000/svg">
<path d="M3.9012 3.97534C3.61761 4.25865 3.25597 4.45094 2.86251 4.5276C2.46905 4.60427 2.06167 4.56183 1.69247 4.40571C1.32326 4.24959 1.00901 3.98689 0.78991 3.6512C0.570813 3.31552 0.456825 2.92211 0.462526 2.52129C0.455547 2.24462 0.508341 1.9697 0.617292 1.71529C0.726243 1.46088 0.888788 1.23296 1.09385 1.04709C1.46734 0.688664 1.96647 0.490943 2.4841 0.496368C2.89022 0.489671 3.28888 0.605878 3.6278 0.829746C3.96672 1.05361 4.23007 1.37469 4.3833 1.75086C4.53653 2.12703 4.57248 2.54073 4.48645 2.9377C4.40041 3.33466 4.19641 3.69636 3.9012 3.97534ZM1.29533 1.34932C0.987688 1.66318 0.815366 2.08516 0.815366 2.52465C0.815366 2.96414 0.987688 3.38612 1.29533 3.69998C1.44946 3.85472 1.63263 3.9775 1.83432 4.06127C2.03601 4.14505 2.25226 4.18818 2.47066 4.18818C2.68906 4.18818 2.90531 4.14505 3.10701 4.06127C3.3087 3.9775 3.49187 3.85472 3.64599 3.69998C3.95364 3.38612 4.12596 2.96414 4.12596 2.52465C4.12596 2.08516 3.95364 1.66318 3.64599 1.34932C3.49297 1.18901 3.30902 1.0614 3.10527 0.974218C2.90153 0.887033 2.68221 0.842081 2.46059 0.842081C2.23897 0.842081 2.01965 0.887033 1.8159 0.974218C1.61216 1.0614 1.42821 1.18901 1.27519 1.34932H1.29533ZM1.59756 3.64961V1.40305H2.68894C2.84307 1.40955 2.99411 1.44845 3.13221 1.51722C3.2281 1.56893 3.30718 1.64699 3.36014 1.7422C3.4131 1.83741 3.43771 1.94578 3.43107 2.05452C3.43789 2.13033 3.42721 2.2067 3.39984 2.27773C3.37248 2.34877 3.32916 2.41256 3.27324 2.4642C3.15938 2.54821 3.02463 2.59932 2.8837 2.61196C2.99862 2.63079 3.10773 2.67558 3.20272 2.74293C3.27201 2.80619 3.32589 2.88448 3.36024 2.97179C3.39458 3.05911 3.40847 3.15312 3.40085 3.24664V3.43805C3.39908 3.4604 3.39908 3.48286 3.40085 3.50521C3.40486 3.52797 3.41047 3.55041 3.41764 3.57237L3.43779 3.63618H2.87699C2.85582 3.53331 2.84347 3.42883 2.84005 3.32387C2.84052 3.23082 2.82808 3.13815 2.80311 3.04851C2.78878 3.01107 2.76671 2.97706 2.73836 2.94871C2.71001 2.92036 2.67601 2.8983 2.63857 2.88396C2.5736 2.86219 2.50559 2.85086 2.43708 2.85038H2.30947H2.18522V3.64625L1.59756 3.64961ZM2.66879 1.84632C2.56031 1.81178 2.44677 1.79589 2.33298 1.7993H2.18859V2.45077H2.41693C2.53509 2.46085 2.65323 2.43132 2.75274 2.36682C2.79264 2.33585 2.82403 2.29527 2.844 2.24888C2.86397 2.20249 2.87185 2.1518 2.86691 2.10153C2.86778 2.04282 2.84863 1.98556 2.81262 1.93917C2.77661 1.89278 2.72589 1.86004 2.66879 1.84632Z" fill="#296CF0"/>
</svg>
