<svg width="17" height="26" viewBox="0 0 17 26" fill="none" xmlns="http://www.w3.org/2000/svg">
<path d="M16.1374 25.959H12.0876C12.003 25.9592 11.9196 25.9402 11.8434 25.9036C11.7672 25.867 11.7003 25.8136 11.6477 25.7475L6.12697 18.8533C6.05513 18.762 5.95685 18.6951 5.84556 18.6617C5.73426 18.6283 5.61537 18.6301 5.50515 18.6669C5.39492 18.7036 5.29873 18.7735 5.22971 18.867C5.16069 18.9605 5.12222 19.073 5.11954 19.1891V25.3949C5.11954 25.5445 5.0601 25.688 4.9543 25.7938C4.8485 25.8996 4.70501 25.959 4.55539 25.959H0.942085C0.792461 25.959 0.64897 25.8996 0.543169 25.7938C0.437369 25.688 0.37793 25.5445 0.37793 25.3949V0.773387C0.37793 0.623763 0.437369 0.480267 0.543169 0.374467C0.64897 0.268666 0.792461 0.209229 0.942085 0.209229H4.55874C4.70836 0.209229 4.85186 0.268666 4.95766 0.374467C5.06346 0.480267 5.1229 0.623763 5.1229 0.773387V14.0512C5.12558 14.1674 5.16405 14.2799 5.23307 14.3734C5.30209 14.4668 5.39828 14.5367 5.50851 14.5735C5.61873 14.6102 5.73762 14.612 5.84892 14.5787C5.96021 14.5453 6.05849 14.4784 6.13033 14.3871L11.2816 7.78506C11.3336 7.71687 11.4007 7.66166 11.4776 7.62378C11.5545 7.58591 11.6392 7.5664 11.7249 7.56679H15.9292C16.0358 7.567 16.1401 7.59739 16.2301 7.65443C16.3201 7.71148 16.3921 7.79285 16.4378 7.88912C16.4834 7.98539 16.5009 8.09263 16.4882 8.19842C16.4754 8.30421 16.433 8.40423 16.3658 8.4869L10.0123 16.2944C9.9302 16.3956 9.8854 16.5218 9.8854 16.6521C9.8854 16.7823 9.9302 16.9086 10.0123 17.0097L16.5807 25.0389C16.6483 25.122 16.6908 25.2227 16.7033 25.3291C16.7158 25.4355 16.6978 25.5432 16.6513 25.6397C16.6048 25.7362 16.5318 25.8175 16.4408 25.8741C16.3498 25.9306 16.2445 25.9601 16.1374 25.959Z" fill="#296CF0"/>
</svg>
