<svg width="21" height="27" viewBox="0 0 21 27" fill="none" xmlns="http://www.w3.org/2000/svg">
<path d="M11.3123 7.053C12.5094 7.04103 13.6951 7.28604 14.7894 7.7715C15.8837 8.25696 16.8611 8.97157 17.6557 9.86708C19.4044 11.7301 20.349 14.2069 20.2851 16.7612C20.3477 19.3164 19.4033 21.7937 17.6557 23.6587C16.8611 24.5542 15.8837 25.2688 14.7894 25.7543C13.6951 26.2398 12.5094 26.4848 11.3123 26.4728C9.27054 26.4728 7.59821 25.9131 6.29528 24.7938C6.21389 24.7243 6.11444 24.6795 6.00853 24.6644C5.90262 24.6494 5.79462 24.6648 5.69712 24.7088C5.59961 24.7528 5.51663 24.8236 5.45784 24.9129C5.39905 25.0023 5.36688 25.1066 5.36509 25.2135V25.4116C5.36509 25.4857 5.3505 25.5591 5.32214 25.6275C5.29379 25.696 5.25224 25.7582 5.19985 25.8106C5.14746 25.863 5.08527 25.9045 5.01682 25.9329C4.94838 25.9612 4.87502 25.9758 4.80093 25.9758H1.18427C1.03465 25.9758 0.891154 25.9164 0.785354 25.8106C0.679554 25.7048 0.620117 25.5613 0.620117 25.4116V0.773387C0.620117 0.623763 0.679554 0.480267 0.785354 0.374467C0.891154 0.268666 1.03465 0.209229 1.18427 0.209229H4.80093C4.87502 0.209229 4.94838 0.223821 5.01682 0.252172C5.08527 0.280524 5.14746 0.32208 5.19985 0.374467C5.25224 0.426854 5.29379 0.489046 5.32214 0.557493C5.3505 0.62594 5.36509 0.6993 5.36509 0.773387V8.32572C5.36196 8.43635 5.39145 8.54545 5.44987 8.63945C5.50829 8.73344 5.59307 8.80818 5.69365 8.85436C5.79423 8.90053 5.90617 8.9161 6.01553 8.89913C6.1249 8.88216 6.22685 8.83339 6.30871 8.75891C7.61165 7.6194 9.27949 7.05076 11.3123 7.053ZM6.79899 20.5122C7.27337 20.9925 7.84188 21.3696 8.46887 21.6198C9.09586 21.87 9.76779 21.988 10.4425 21.9663C11.1196 21.9867 11.7937 21.8682 12.4232 21.6181C13.0527 21.368 13.6243 20.9917 14.1028 20.5122C14.5862 20.0214 14.9642 19.437 15.2137 18.7949C15.4631 18.1528 15.5788 17.4664 15.5535 16.778C15.5795 16.09 15.4642 15.404 15.2147 14.7623C14.9652 14.1206 14.5868 13.5369 14.1028 13.0472C13.6243 12.5677 13.0527 12.1913 12.4232 11.9413C11.7937 11.6912 11.1196 11.5727 10.4425 11.5931C9.76779 11.5714 9.09586 11.6894 8.46887 11.9396C7.84188 12.1898 7.27337 12.5669 6.79899 13.0472C6.32081 13.5403 5.94728 14.125 5.70086 14.7661C5.45444 15.4072 5.34023 16.0916 5.36509 16.778C5.33997 17.465 5.45405 18.1499 5.70047 18.7916C5.94688 19.4334 6.32055 20.0186 6.79899 20.5122Z" fill="#296CF0"/>
</svg>
