<svg width="19" height="19" viewBox="0 0 19 19" fill="none" xmlns="http://www.w3.org/2000/svg">
<path d="M11.2208 0.0530983C12.1459 0.0239857 13.0669 0.188135 13.9249 0.535062C14.783 0.88199 15.5593 1.40407 16.2042 2.06795C17.5138 3.41118 18.1698 5.27492 18.172 7.65916V18.405C18.172 18.4791 18.1574 18.5525 18.1291 18.6209C18.1007 18.6894 18.0592 18.7516 18.0068 18.8039C17.9544 18.8563 17.8922 18.8979 17.8238 18.9262C17.7553 18.9546 17.6819 18.9692 17.6079 18.9692H13.9912C13.9171 18.9692 13.8438 18.9546 13.7753 18.9262C13.7069 18.8979 13.6447 18.8563 13.5923 18.8039C13.5399 18.7516 13.4983 18.6894 13.47 18.6209C13.4416 18.5525 13.427 18.4791 13.427 18.405V8.25354C13.427 7.02672 13.0912 6.08869 12.4196 5.43946C12.0656 5.10812 11.6487 4.85119 11.1936 4.68391C10.7385 4.51664 10.2544 4.44241 9.77009 4.46562C9.22727 4.44042 8.68517 4.52896 8.17858 4.72559C7.67199 4.92221 7.2121 5.22256 6.82841 5.60737C6.09411 6.36629 5.72584 7.5058 5.7236 9.0259V18.395C5.7236 18.544 5.66463 18.687 5.55956 18.7927C5.45448 18.8984 5.31184 18.9582 5.1628 18.9591H1.54951C1.39988 18.9591 1.25639 18.8997 1.15059 18.7939C1.04479 18.6881 0.985352 18.5446 0.985352 18.395V1.13104C0.985352 0.981419 1.04479 0.837924 1.15059 0.732124C1.25639 0.626323 1.39988 0.566885 1.54951 0.566885H5.17624C5.32528 0.567772 5.46791 0.627602 5.57299 0.733306C5.67806 0.83901 5.73704 0.981999 5.73704 1.13104C5.73681 1.23889 5.76769 1.34452 5.82598 1.43526C5.88426 1.52601 5.96747 1.59802 6.06564 1.64268C6.16381 1.68733 6.27277 1.70273 6.37947 1.68703C6.48617 1.67133 6.58608 1.6252 6.66723 1.55416C7.79331 0.553452 9.31116 0.0530983 11.2208 0.0530983Z" fill="#296CF0"/>
</svg>
