<svg width="20" height="21" viewBox="0 0 20 21" fill="none" xmlns="http://www.w3.org/2000/svg">
<path d="M8.8 14.5855L13.47 11.0855C13.74 10.8855 13.74 10.4855 13.47 10.2855L8.8 6.78549C8.47 6.53549 8 6.77549 8 7.18549V14.1855C8 14.5955 8.47 14.8355 8.8 14.5855ZM10 0.685486C4.48 0.685486 0 5.16549 0 10.6855C0 16.2055 4.48 20.6855 10 20.6855C15.52 20.6855 20 16.2055 20 10.6855C20 5.16549 15.52 0.685486 10 0.685486ZM10 18.6855C5.59 18.6855 2 15.0955 2 10.6855C2 6.27549 5.59 2.68549 10 2.68549C14.41 2.68549 18 6.27549 18 10.6855C18 15.0955 14.41 18.6855 10 18.6855Z" fill="#296CF0"/>
</svg>
