<svg width="21" height="20" viewBox="0 0 21 20" fill="none" xmlns="http://www.w3.org/2000/svg">
<path d="M16.3463 0.566981H19.9664C20.1154 0.567868 20.258 0.627698 20.3631 0.733402C20.4682 0.839106 20.5272 0.982095 20.5271 1.13114V18.395C20.5271 18.5447 20.4677 18.6882 20.3619 18.794C20.2561 18.8998 20.1126 18.9592 19.963 18.9592H16.3463C16.1973 18.9583 16.0547 18.8985 15.9496 18.7928C15.8445 18.6871 15.7855 18.5441 15.7855 18.395V18.1868C15.7848 18.0783 15.7527 17.9723 15.6931 17.8815C15.6336 17.7907 15.5491 17.719 15.4498 17.6751C15.3506 17.6311 15.2407 17.6167 15.1335 17.6337C15.0263 17.6506 14.9262 17.6981 14.8453 17.7704C13.5244 18.9055 11.8387 19.473 9.788 19.473C8.59666 19.4825 7.41716 19.2362 6.32919 18.7507C5.24122 18.2653 4.27012 17.5519 3.48152 16.6589C1.73047 14.7958 0.784497 12.3174 0.848777 9.76141C0.784657 7.2064 1.73067 4.72917 3.48152 2.86727C4.26938 1.97511 5.23939 1.26228 6.32613 0.776833C7.41287 0.291391 8.59108 0.0446301 9.78128 0.053194C11.832 0.053194 13.5177 0.620711 14.8386 1.75574C14.9195 1.82812 15.0195 1.87561 15.1268 1.89253C15.234 1.90944 15.3439 1.89505 15.4431 1.85109C15.5424 1.80714 15.6269 1.73547 15.6864 1.6447C15.7459 1.55392 15.778 1.4479 15.7788 1.33934V1.13114C15.7788 1.05677 15.7935 0.983134 15.8221 0.914467C15.8506 0.8458 15.8925 0.783458 15.9452 0.731027C15.998 0.678596 16.0606 0.63711 16.1294 0.608957C16.1982 0.580804 16.272 0.566538 16.3463 0.566981ZM7.03101 13.5124C7.50463 13.9928 8.07254 14.3699 8.699 14.6202C9.32546 14.8704 9.99693 14.9883 10.6712 14.9664C11.3482 14.9869 12.0223 14.8684 12.6518 14.6183C13.2814 14.3682 13.853 13.9919 14.3315 13.5124C14.8155 13.0219 15.1941 12.4376 15.4442 11.7955C15.6942 11.1533 15.8104 10.4669 15.7855 9.7782C15.8099 9.09011 15.6935 8.40428 15.4435 7.76275C15.1934 7.12122 14.8151 6.53751 14.3315 6.04737C13.853 5.56791 13.2814 5.19153 12.6518 4.94145C12.0223 4.69138 11.3482 4.5729 10.6712 4.59332C9.99693 4.57146 9.32546 4.68935 8.699 4.93959C8.07254 5.18983 7.50463 5.567 7.03101 6.04737C6.55219 6.54 6.17825 7.12461 5.93179 7.76587C5.68533 8.40712 5.57147 9.0917 5.59711 9.7782C5.57121 10.4652 5.68493 11.1504 5.93139 11.7922C6.17785 12.4341 6.55193 13.0193 7.03101 13.5124Z" fill="#296CF0"/>
</svg>
