<svg width="330" height="878" viewBox="0 0 330 878" fill="none" xmlns="http://www.w3.org/2000/svg">
<path d="M312.95 649.544C322.71 624.556 325.605 597.422 318.849 571.361C312.414 546.48 298.364 524.065 281.848 504.546C264.474 484.169 244.204 466.473 223.077 450.064C204.737 435.8 185.755 422.609 165.914 410.49C175.03 402.446 183.288 393.116 190.152 382.391C204.201 360.191 211.172 331.985 202.914 306.353C198.624 292.839 190.259 281.257 180.928 270.854C172.027 260.88 162.482 251.549 152.293 242.862C125.267 219.697 94.2725 201.357 61.2403 188.273C62.2055 186.235 63.0635 184.305 64.0287 182.267C73.681 158.673 69.2839 133.47 54.6982 112.878C39.6836 91.4286 17.4833 76.0922 -4.50239 62.2573C-28.9548 46.8137 -55.0159 33.4077 -82.3641 23.6482C-134.701 4.98716 -192.4 0.482756 -245.273 19.8945C-269.404 28.7961 -291.604 42.4165 -309.621 60.8631C-310.694 61.9355 -309.085 63.5443 -308.013 62.4718C-270.691 24.5062 -216.209 7.77559 -163.765 9.59881C-107.567 11.5293 -53.9435 34.0512 -6.86184 63.3298C15.2311 77.0575 37.6459 92.3938 52.6605 113.843C67.9969 135.615 71.4288 162.212 59.4171 186.45C59.3099 186.772 59.0954 186.986 58.9881 187.308C45.2604 181.945 31.1038 177.441 16.7326 174.009C-32.6012 161.997 -84.8307 161.032 -134.379 172.829C-148.107 176.047 -161.942 180.015 -174.597 186.45C-180.71 189.56 -186.716 193.206 -191.971 197.818C-196.368 201.572 -201.838 206.398 -203.768 212.189C-205.591 217.873 -202.267 222.056 -198.299 225.81C-193.794 229.885 -188.968 233.639 -183.82 237.071C-173.632 243.827 -162.478 248.761 -150.788 252.3C-125.907 259.807 -99.3091 260.665 -73.677 257.769C-46.6506 254.767 -19.088 248.224 5.79338 237.071C27.9936 227.097 48.3706 211.868 59.9533 190.204C75.5042 196.317 90.4116 203.502 104.783 211.867C126.018 224.308 145.859 239.001 163.554 256.053C183.717 275.358 203.021 297.665 203.987 326.944C204.845 355.043 191.224 381.533 172.027 401.374C169.346 404.055 166.665 406.736 163.769 409.203C162.053 408.13 160.122 407.058 158.406 405.985C113.041 379.281 64.136 358.475 13.0862 345.605C-37.1056 332.95 -89.3351 327.909 -140.921 332.735C-153.684 333.915 -166.446 335.738 -178.994 338.205C-193.043 340.886 -207.307 343.996 -220.284 350.109C-240.661 359.762 -260.18 382.713 -251.064 406.629C-246.345 419.284 -234.763 427.864 -224.038 435.157C-213.313 442.45 -201.838 448.777 -189.933 454.032C-166.768 464.328 -142.101 470.548 -116.898 473.659C-64.3465 480.308 -10.7227 474.088 40.7561 462.934C83.7623 453.603 130.308 440.734 164.198 411.991C188.972 427.113 212.674 443.951 234.981 462.398C273.483 494.25 313.272 535.111 319.707 587.019C326.571 643.217 290.643 695.875 250.639 731.589C205.488 771.806 148.862 796.902 92.1276 815.885C35.6082 834.868 -22.6272 849.346 -81.506 858.891C-134.915 867.471 -191.864 874.657 -244.951 860.822C-269.296 854.494 -292.033 843.34 -310.479 826.181C-311.445 825.216 -313.161 826.717 -312.088 827.79C-272.192 865.112 -215.351 872.405 -163.014 870.26C-133.736 869.08 -104.35 865.004 -75.5002 860.178C-44.2911 854.923 -13.4039 848.274 17.2689 840.338C77.7565 824.679 138.78 805.482 193.476 774.595C243.883 746.282 291.501 704.67 312.95 649.544ZM-4.07338 238.787C-28.8476 248.332 -55.6594 254.337 -82.1495 256.375C-107.031 258.306 -132.449 256.482 -156.15 248.224C-167.733 244.149 -178.565 238.465 -188.432 231.172C-193.472 227.418 -203.768 220.769 -201.838 213.476C-199.907 206.612 -192.078 200.499 -186.501 196.424C-174.382 187.522 -160.011 182.374 -145.855 178.299C-134.165 174.974 -122.367 172.4 -110.248 170.577C-85.7959 166.716 -60.8073 165.966 -36.1404 167.896C-3.96614 170.47 27.7791 177.763 57.9156 189.453C44.9387 213.583 21.0225 229.134 -4.07338 238.787ZM97.3827 445.56C71.5361 454.461 44.5097 460.467 17.6978 465.4C-7.50531 470.012 -32.923 473.122 -58.4479 473.98C-108.211 475.696 -159.689 468.618 -204.09 444.809C-225.754 433.226 -257.499 414.78 -249.992 385.608C-242.484 356.652 -211.061 347.107 -185.107 341.744C-136.095 331.556 -85.4742 330.912 -36.1404 338.205C13.6224 345.498 61.9911 360.834 107.571 381.962C126.125 390.649 144.357 400.301 161.838 410.919C143.285 426.684 120.763 437.623 97.3827 445.56Z" fill="#296CF0" stroke="#296CF0" stroke-width="13.6504" stroke-miterlimit="10"/>
</svg>
