<svg width="19" height="27" viewBox="0 0 19 27" fill="none" xmlns="http://www.w3.org/2000/svg">
<path d="M14.4953 0.566898H18.3571C18.4477 0.566917 18.5369 0.588729 18.6172 0.630492C18.6975 0.672256 18.7666 0.732744 18.8187 0.806845C18.8707 0.880945 18.9042 0.966481 18.9162 1.05623C18.9282 1.14597 18.9184 1.23729 18.8877 1.32247L12.457 18.9893C11.501 21.6154 10.2328 23.5183 8.65225 24.6981C7.19932 25.7973 5.41729 26.3368 3.30618 26.3167C3.15892 26.314 3.01868 26.2532 2.91612 26.1475C2.81356 26.0418 2.75701 25.8998 2.75881 25.7525V22.4515C2.76204 22.3106 2.81858 22.1761 2.91704 22.0751C3.01549 21.9742 3.14854 21.9143 3.28939 21.9075C4.18516 21.8983 5.05722 21.6186 5.79116 21.1049C6.58452 20.4474 7.17589 19.5789 7.49707 18.5998C7.5508 18.4627 7.5508 18.3104 7.49707 18.1733L0.377926 1.36276C0.342045 1.27725 0.327796 1.18421 0.336442 1.09188C0.345088 0.999549 0.376362 0.910772 0.427496 0.833408C0.478629 0.756043 0.548042 0.692478 0.629598 0.648335C0.711153 0.604193 0.80234 0.580836 0.895074 0.580331H4.84753C4.96094 0.580228 5.07172 0.614513 5.16524 0.678662C5.25877 0.74281 5.33065 0.833807 5.37139 0.939645L9.45819 11.474C9.50029 11.5821 9.57475 11.6747 9.67139 11.739C9.76803 11.8033 9.88215 11.8362 9.9982 11.8333C10.1142 11.8304 10.2266 11.7917 10.3198 11.7226C10.4131 11.6535 10.4828 11.5573 10.5193 11.4471L13.958 0.953077C13.9955 0.840328 14.0676 0.742293 14.1641 0.672947C14.2606 0.603602 14.3765 0.566489 14.4953 0.566898Z" fill="#296CF0"/>
</svg>
