<svg width="330" height="878" viewBox="0 0 330 878" fill="none" xmlns="http://www.w3.org/2000/svg">
<path d="M17.0499 649.544C7.2904 624.556 4.39468 597.422 11.1513 571.361C17.5861 546.48 31.6356 524.065 48.1517 504.546C65.5258 484.169 85.7955 466.473 106.923 450.064C125.263 435.8 144.245 422.609 164.086 410.49C154.97 402.446 146.712 393.116 139.848 382.391C125.799 360.191 118.828 331.985 127.086 306.353C131.376 292.839 139.741 281.257 149.072 270.854C157.973 260.88 167.518 251.549 177.707 242.862C204.733 219.697 235.727 201.357 268.76 188.273C267.794 186.235 266.937 184.305 265.971 182.267C256.319 158.673 260.716 133.47 275.302 112.878C290.316 91.4286 312.517 76.0922 334.502 62.2573C358.955 46.8137 385.016 33.4077 412.364 23.6482C464.701 4.98716 522.4 0.482756 575.273 19.8945C599.404 28.7961 621.604 42.4165 639.621 60.8631C640.694 61.9355 639.085 63.5443 638.013 62.4718C600.691 24.5062 546.209 7.77559 493.765 9.59881C437.567 11.5293 383.943 34.0512 336.862 63.3298C314.769 77.0575 292.354 92.3938 277.339 113.843C262.003 135.615 258.571 162.212 270.583 186.45C270.69 186.772 270.905 186.986 271.012 187.308C284.74 181.945 298.896 177.441 313.267 174.009C362.601 161.997 414.831 161.032 464.379 172.829C478.107 176.047 491.942 180.015 504.597 186.45C510.71 189.56 516.716 193.206 521.971 197.818C526.368 201.572 531.838 206.398 533.768 212.189C535.591 217.873 532.267 222.056 528.299 225.81C523.794 229.885 518.968 233.639 513.82 237.071C503.632 243.827 492.478 248.761 480.788 252.3C455.907 259.807 429.309 260.665 403.677 257.769C376.651 254.767 349.088 248.224 324.207 237.071C302.006 227.097 281.629 211.868 270.047 190.204C254.496 196.317 239.588 203.502 225.217 211.867C203.982 224.308 184.141 239.001 166.446 256.053C146.283 275.358 126.979 297.665 126.013 326.944C125.155 355.043 138.776 381.533 157.973 401.374C160.654 404.055 163.335 406.736 166.231 409.203C167.947 408.13 169.878 407.058 171.594 405.985C216.959 379.281 265.864 358.475 316.914 345.605C367.106 332.95 419.335 327.909 470.921 332.735C483.684 333.915 496.446 335.738 508.994 338.205C523.043 340.886 537.307 343.996 550.284 350.109C570.661 359.762 590.18 382.713 581.064 406.629C576.345 419.284 564.763 427.864 554.038 435.157C543.313 442.45 531.838 448.777 519.933 454.032C496.768 464.328 472.101 470.548 446.898 473.659C394.346 480.308 340.723 474.088 289.244 462.934C246.238 453.603 199.692 440.734 165.802 411.991C141.028 427.113 117.326 443.951 95.0188 462.398C56.517 494.25 16.7282 535.111 10.2933 587.019C3.42946 643.217 39.3574 695.875 79.3607 731.589C124.512 771.806 181.138 796.902 237.872 815.885C294.392 834.868 352.627 849.346 411.506 858.891C464.915 867.471 521.864 874.657 574.951 860.822C599.296 854.494 622.033 843.34 640.479 826.181C641.445 825.216 643.161 826.717 642.088 827.79C602.192 865.112 545.351 872.405 493.014 870.26C463.736 869.08 434.35 865.004 405.5 860.178C374.291 854.923 343.404 848.274 312.731 840.338C252.244 824.679 191.22 805.482 136.524 774.595C86.1172 746.282 38.4994 704.67 17.0499 649.544ZM334.073 238.787C358.848 248.332 385.659 254.337 412.15 256.375C437.031 258.306 462.449 256.482 486.15 248.224C497.733 244.149 508.565 238.465 518.432 231.172C523.472 227.418 533.768 220.769 531.838 213.476C529.907 206.612 522.078 200.499 516.501 196.424C504.382 187.522 490.011 182.374 475.855 178.299C464.165 174.974 452.367 172.4 440.248 170.577C415.796 166.716 390.807 165.966 366.14 167.896C333.966 170.47 302.221 177.763 272.084 189.453C285.061 213.583 308.977 229.134 334.073 238.787ZM232.617 445.56C258.464 454.461 285.49 460.467 312.302 465.4C337.505 470.012 362.923 473.122 388.448 473.98C438.211 475.696 489.689 468.618 534.09 444.809C555.754 433.226 587.499 414.78 579.992 385.608C572.484 356.652 541.061 347.107 515.107 341.744C466.095 331.556 415.474 330.912 366.14 338.205C316.378 345.498 268.009 360.834 222.429 381.962C203.875 390.649 185.643 400.301 168.162 410.919C186.715 426.684 209.237 437.623 232.617 445.56Z" fill="#296CF0" stroke="#296CF0" stroke-width="13.6504" stroke-miterlimit="10"/>
</svg>
