<svg width="53" height="53" viewBox="0 0 53 53" fill="none" xmlns="http://www.w3.org/2000/svg">
<g clip-path="url(#clip0_1511_34541)">
<path d="M0.691406 52.2451L4.27758 39.2451C1.94662 35.2106 0.691406 30.7279 0.691406 26.0658C0.691406 11.9003 12.3466 0.245117 26.6017 0.245117C40.8568 0.245117 52.6914 11.9003 52.6914 26.0658C52.6914 40.2312 40.8569 52.2451 26.6017 52.2451C22.119 52.2451 17.8156 50.8106 13.9603 48.6589L0.691406 52.2451Z" fill="#EDEDED"/>
<path d="M14.6772 43.9968L15.4841 44.4451C18.8014 46.5072 22.6566 47.7624 26.6911 47.7624C38.4359 47.7624 48.2083 37.9899 48.2083 26.0658C48.2083 14.1416 38.4359 4.72791 26.6014 4.72791C14.7669 4.72791 5.17383 14.2313 5.17383 26.0658C5.17383 30.1899 6.33936 34.2244 8.49106 37.6313L9.02904 38.4382L6.96702 45.9693L14.6772 43.9968Z" fill="#55CD6C"/>
<path d="M19.6985 14.052L17.9951 13.9623C17.4571 13.9623 16.9192 14.1416 16.5606 14.5003C15.7537 15.2175 14.4089 16.5623 14.0503 18.3555C13.4227 21.0451 14.4089 24.2727 16.74 27.5003C19.071 30.7278 23.5538 35.9278 31.4434 38.1692C33.9537 38.8864 35.9261 38.4381 37.54 37.452C38.7952 36.645 39.602 35.3899 39.871 34.045L40.14 32.7898C40.2297 32.4312 40.0503 31.9829 39.6917 31.8037L34.0434 29.2037C33.6848 29.0243 33.2365 29.114 32.9675 29.4726L30.7261 32.3415C30.5468 32.5209 30.2779 32.6105 30.0089 32.5209C28.4848 31.9829 23.3744 29.8312 20.5951 24.452C20.5054 24.183 20.5054 23.914 20.6848 23.7347L22.8365 21.3141C23.0158 21.0451 23.1054 20.6865 23.0158 20.4175L20.4158 14.5899C20.326 14.3209 20.0571 14.052 19.6985 14.052Z" fill="#FEFEFE"/>
</g>
<defs>
<clipPath id="clip0_1511_34541">
<rect width="52" height="52" fill="white" transform="translate(0.691406 0.245117)"/>
</clipPath>
</defs>
</svg>
